<?xml version="1.0"?>
<svg xmlns="http://www.w3.org/2000/svg" version="1.1" width="260" height="101" viewBox="0 0 65535 25559"><svg viewBox="0 0 300 117" fill="none" class="wdw-logo" style="width:300px" width="65535" height="25559"><path d="M55.085 11.186L44.407.508c-.678-.678-1.864-.17-1.864.678v53.22c0 .679.17 1.357.847 2.035l12.543 12.542V13.22c0-.847-.34-1.525-.848-2.034zM100.678 11.186L90 .508c-.678-.847-1.864-.339-1.864.509v67.796H55.933L67.458 80.34c.678.678 1.356 1.017 2.203 1.017h24.746c.678 0 1.356-.17 2.034-.848l4.237-4.237c.678-.678.848-1.356.848-2.034V13.22c0-.847-.17-1.525-.848-2.034z" fill="#fff"/><path d="M13.39 13.22c0-.847-.17-1.525-.848-2.034L1.864.34C1.017-.34 0 .169 0 1.186v58.475c0 1.017.508 1.864 1.017 2.542L19.153 80.34c.678.678 1.525 1.017 2.542 1.017h26.78c.678 0 1.355-.17 2.033-.848l4.407-4.406c.678-.678.848-1.356.848-2.034v-5.085H13.39V13.22zM250 11.186L239.322.508c-.678-.678-1.864-.17-1.864.678v53.22c0 .679.169 1.357.847 2.035l12.543 12.542V13.22c0-.847-.339-1.525-.848-2.034zM295.593 11.186L284.915.508c-.678-.847-1.864-.339-1.864.509v67.797h-32.203l11.525 11.525c.678.678 1.356 1.017 2.203 1.017h24.746c.678 0 1.356-.17 2.034-.848l4.237-4.237c.678-.678.848-1.356.848-2.034V13.22c0-.847-.17-1.525-.848-2.034z" fill="#fff"/><path d="M208.305 13.22c0-.847-.17-1.525-.848-2.034L196.779.34c-.847-.678-1.864-.17-1.864.847v58.475c0 1.017.509 1.864 1.017 2.542l18.136 18.136c.678.678 1.525 1.017 2.542 1.017h26.78c.678 0 1.356-.17 2.034-.848l4.406-4.406c.678-.678.848-1.356.848-2.034v-5.085h-42.373V13.22zM18.242 111.473l-3.736-12.794h-3.297l-3.736 12.794L3.57 98.679H0l5.522 17.896h3.599l3.736-12.5 3.737 12.5h3.599l5.522-17.896h-3.572l-3.901 12.794zM36.132 116.949c5.825 0 9.643-4.193 9.643-9.295 0-5.129-3.791-9.349-9.643-9.349-5.796 0-9.615 4.22-9.615 9.349 0 5.102 3.846 9.295 9.615 9.295zm0-3.125c-3.846 0-6.291-2.858-6.291-6.197 0-3.365 2.472-6.197 6.291-6.197 3.874 0 6.32 2.832 6.32 6.197 0 3.339-2.419 6.197-6.32 6.197zM48.941 116.575h13.16v-3.125h-9.863V98.679h-3.297v17.896zM78.4 98.679H64.636v17.896h3.297v-7.345h9.56v-3.019h-9.56v-4.407H78.4v-3.125zM88.246 116.548h7.583c5.384 0 9.258-3.766 9.258-8.894v-.08c0-5.129-3.874-8.895-9.258-8.895h-7.583v17.869zm7.528-14.744c3.489 0 5.989 2.351 5.989 5.77v.08c0 3.419-2.5 5.796-5.99 5.796h-4.23v-11.646h4.23zM108.261 116.575h3.296V98.679h-3.296v17.896zM124.128 106.906v2.992h5.989c-.715 2.35-2.857 3.926-5.824 3.899-3.792-.026-6.292-2.831-6.292-6.223 0-3.286 2.39-6.117 6.209-6.144 2.665 0 4.698 1.416 5.522 3.286h3.654c-1.099-3.74-4.56-6.41-9.148-6.41-5.797 0-9.561 4.219-9.561 9.348 0 5.128 3.846 9.295 9.533 9.295 5.824 0 9.78-4.22 9.561-10.043h-9.643zM136.86 116.575h3.297V98.679h-3.297v17.896zM142.893 98.679v3.125h6.402v14.771h3.269v-14.771h6.401v-3.125h-16.072zM176.58 116.575l-7.775-17.896h-3.627l-7.747 17.896h3.626l1.786-4.3h8.214l1.814 4.3h3.709zm-9.671-14.103l2.912 6.891h-5.769l2.857-6.891zM178.767 116.575h13.16v-3.125h-9.863V98.679h-3.297v17.896zM217.555 111.473l-3.736-12.794h-3.297l-3.736 12.794-3.902-12.794h-3.571l5.522 17.896h3.599l3.736-12.5 3.737 12.5h3.599l5.522-17.896h-3.572l-3.901 12.794zM235.445 116.949c5.824 0 9.643-4.193 9.643-9.295 0-5.129-3.791-9.349-9.643-9.349-5.797 0-9.615 4.22-9.615 9.349 0 5.102 3.846 9.295 9.615 9.295zm0-3.125c-3.846 0-6.291-2.858-6.291-6.197 0-3.365 2.472-6.197 6.291-6.197 3.874 0 6.319 2.832 6.319 6.197 0 3.339-2.418 6.197-6.319 6.197zM251.551 116.575v-6.41h7.995c.824 0 1.264.374 1.264 1.121v5.289h3.296v-5.903c0-1.763-.714-2.831-2.17-3.178v-.081c1.154-.801 1.813-2.056 1.813-3.739 0-3.205-2.582-4.995-6.154-4.995h-9.341v17.896h3.297zm0-14.771h5.824c1.731 0 3.077 1.042 3.077 2.671 0 1.683-1.291 2.698-3.077 2.698h-5.824v-5.369zM267.464 116.575h13.16v-3.125h-9.863V98.679h-3.297v17.896zM283.159 116.548h7.583c5.384 0 9.258-3.766 9.258-8.894v-.08c0-5.129-3.874-8.895-9.258-8.895h-7.583v17.869zm7.528-14.744c3.489 0 5.989 2.351 5.989 5.77v.08c0 3.419-2.5 5.796-5.989 5.796h-4.231v-11.646h4.231z" fill="#fff"/><path fill-rule="evenodd" clip-rule="evenodd" d="M131.187 10.992L120.509.314c-.678-.678-1.864-.17-1.864.678v65.085c0 .678.169 1.356.847 2.034l12.542 12.542V13.026c0-.848-.339-1.525-.847-2.034zm33.22 1.55h-29.339c-1.057 0-1.586-1.278-.839-2.025l9.5-9.5C144.407.339 145.085 0 145.933 0h24.745c.678 0 1.356.17 2.034.847l4.238 4.238c.678.678.847 1.356.847 2.034V74.165c0 .677-.169 1.355-.847 2.033l-4.238 4.238c-.678.677-1.356.847-2.034.847h-24.745c-.848 0-1.526-.339-2.204-1.017l-11.525-11.525h32.203V12.542z" fill="#fff"/></svg></svg>
