<?xml version="1.0"?>
<svg xmlns="http://www.w3.org/2000/svg" width="188" height="28" viewBox="0 0 188 28" fill="none">
<path d="M45.4366 11.4481L45.1239 13.0429H45.0301C44.6236 12.1673 43.4979 10.9165 40.9963 10.9165C36.9625 10.9165 32.8348 14.0435 31.928 18.9529C31.1463 23.2681 33.2101 27.0518 37.9944 27.0518C39.7455 27.0518 41.7468 26.3639 42.8099 24.8942H42.9038L42.6223 26.5202H47.0939L49.877 11.4481H45.4366ZM43.9669 18.9529C43.6855 20.4226 42.2784 22.8304 39.4641 22.8304C36.7123 22.8304 36.1494 20.4226 36.3996 19.0154C36.7123 17.2956 38.2445 15.1379 40.8712 15.1379C43.4353 15.1692 44.3109 17.2018 43.9669 18.9529Z" fill="white"/>
<path d="M52.409 11.4481H56.5992L56.3177 13.0429H56.4116C56.9431 12.3236 58.0063 10.9165 60.5705 10.9165L59.7262 15.4819C57.5998 15.5132 56.0676 15.951 55.6611 18.2649L54.1288 26.5202H49.626L52.409 11.4481Z" fill="white"/>
<path d="M63.5728 5.56934H68.1069L65.9806 16.9203H66.0431L71.2652 11.4481H76.5811L69.7017 18.0773L73.6417 26.5202H68.5447L65.6366 19.2656H65.5428L64.2295 26.5202H59.6953L63.5728 5.56934Z" fill="white"/>
<path d="M83.8046 10.9165C79.2392 10.9165 75.1741 14.8565 74.4237 19.0467C73.5794 23.5183 76.6126 27.0205 80.9278 27.0205C82.46 27.0205 84.0548 26.5515 85.4307 25.6446C86.8691 24.7691 88.1824 23.487 89.1831 21.7984H84.5864C83.8359 22.5802 82.9604 23.2056 81.5845 23.2056C79.8334 23.2056 78.52 22.1424 78.6138 20.36H89.9023C90.0274 20.0161 90.1212 19.7346 90.215 19.1718C91.0905 14.5751 88.4013 10.9165 83.8046 10.9165ZM79.2392 17.3268C79.5832 16.4513 80.834 14.7314 83.1792 14.7314C85.5245 14.7314 86.0874 16.42 86.0874 17.3268H79.2392Z" fill="white"/>
<path d="M25.9541 5.56982L18.0115 17.5149H17.949V5.56982H14.1028L0 26.5207H5.47224L13.3835 14.5756H13.4461V26.5207H17.3236L25.2349 14.5756H25.2974V26.5207H29.8315V5.56982H25.9541Z" fill="white"/>
<path d="M101.66 11.4482H98.8143L99.6586 6.97656H95.7185L95.4058 8.69641C95.0619 10.6664 93.8111 11.2605 92.185 11.4482H92.1538L91.4658 14.8566H93.686L91.5284 26.489H96.0312L98.1889 14.8566H101.066L101.66 11.4482Z" fill="white"/>
<path d="M171.359 20.8288C169.889 24.2373 166.356 27.0516 162.291 27.0516C157.725 27.0516 154.88 23.4555 155.693 18.9526C156.537 14.5436 160.602 10.9475 165.136 10.9475C169.107 10.9475 171.859 13.6055 171.953 17.2953H167.388C167.106 16.2321 166.418 15.169 164.511 15.169C162.384 15.0752 160.633 16.795 160.227 18.9839C159.82 21.2041 160.946 22.8301 163.104 22.8301C164.949 22.8301 166.074 21.7669 166.731 20.7976L171.359 20.8288ZM134.054 0.221924L125.298 5.56909H127.769L119.826 17.5142H119.732V5.56909H115.855L107.943 17.5142H107.85V5.56909H103.347V26.52H107.287L115.229 14.5748H115.323V26.52H119.201L133.241 5.56909H135.461L134.054 0.221924ZM142.59 26.52H138.119L138.4 24.8939H138.307C137.243 26.3636 135.242 27.0516 133.491 27.0516C128.707 27.0516 126.643 23.2992 127.425 18.9526C128.3 14.0432 132.459 10.9163 136.493 10.9163C138.963 10.9163 140.12 12.1358 140.527 13.0426H140.62L140.933 11.4478H145.405L142.59 26.52ZM135.023 22.8614C137.806 22.8614 139.213 20.4536 139.526 18.9839C139.839 17.1702 138.994 15.169 136.43 15.169C133.835 15.169 132.303 17.3266 131.959 19.0464C131.709 20.4536 132.271 22.8614 135.023 22.8614ZM156.662 11.4478H153.848L154.692 6.97624H150.752L150.439 8.69609C150.095 10.6661 148.844 11.2602 147.218 11.4478H147.156L146.499 14.8563H148.719L146.562 26.4887H151.065L153.222 14.8563H156.099L156.662 11.4478ZM175.612 5.56909H180.114L178.739 13.0426H178.832C179.802 11.6355 181.084 10.9163 183.085 10.9163C184.524 10.9163 186.15 11.4478 186.9 12.6048C187.869 14.0745 187.776 15.3879 187.244 18.0771L185.712 26.4887H181.209L182.71 18.296C182.835 17.5768 183.273 15.1377 180.896 15.1377C178.363 15.1377 177.926 17.3891 177.8 18.1396L176.268 26.4887H171.765L175.612 5.56909Z" fill="white"/>
</svg>
