<?xml version="1.0"?>
<svg xmlns="http://www.w3.org/2000/svg" width="116" height="37" viewBox="0 0 116 37" fill="none">
<path fill-rule="evenodd" clip-rule="evenodd" d="M35.7885 0.561048C36.7329 0.339192 37.7112 0.298397 38.671 0.440849C39.7463 0.576261 40.7784 0.945619 41.6937 1.52264C41.6937 2.35682 41.6937 3.1914 41.6937 4.02638C41.1332 3.58796 40.5174 3.22429 39.862 2.94459C38.9865 2.5837 38.0383 2.4314 37.0931 2.49985C36.6384 2.52557 36.1946 2.64857 35.7921 2.86045C35.5286 3.00323 35.3117 3.21804 35.167 3.47947C34.998 3.81807 34.9486 4.20337 35.0268 4.57328C35.0876 4.8981 35.2608 5.19152 35.5165 5.40266C35.8478 5.68272 36.2564 5.851 36.6591 6.00365L39.1982 6.92197C39.9236 7.19001 40.6358 7.53859 41.2162 8.05665C41.7716 8.54827 42.157 9.20145 42.3176 9.92333C42.4907 10.6643 42.4808 11.4359 42.2886 12.1723C42.0996 12.8359 41.7182 13.4295 41.192 13.8791C40.6257 14.3517 39.9588 14.6904 39.2417 14.8695C38.269 15.1107 37.2601 15.173 36.2649 15.0534C35.0256 14.9152 33.7814 14.5606 32.7452 13.8514C32.7452 13.0028 32.7452 12.1542 32.7452 11.3056C33.9894 12.3045 35.5527 12.9355 37.1608 12.9547C37.8416 12.9656 38.5477 12.8983 39.1607 12.5833C39.5164 12.4099 39.7965 12.1139 39.949 11.7504C40.1025 11.3432 40.1111 10.8961 39.9732 10.4835C39.8191 10.0871 39.5263 9.75929 39.1486 9.56033C38.5162 9.18892 37.8101 8.98097 37.127 8.72856C36.2975 8.42325 35.4415 8.16963 34.6701 7.7297C34.0723 7.41311 33.5626 6.95433 33.1865 6.3943C32.7029 5.62983 32.5651 4.68988 32.6473 3.80041C32.7325 2.95763 33.1267 2.17551 33.7548 1.60317C34.3357 1.0941 35.0344 0.736055 35.7885 0.561048V0.561048Z" fill="white"/>
<path fill-rule="evenodd" clip-rule="evenodd" d="M92.5703 1.18759C93.5484 0.563755 94.737 0.329367 95.8868 0.354609C97.3208 0.366629 98.7717 0.733235 99.9796 1.51573C99.9796 2.34871 99.9796 3.18169 99.9796 4.01587C99.4652 3.61792 98.9066 3.27995 98.3147 3.0086C97.2755 2.53947 96.1227 2.37677 94.9933 2.53982C94.3948 2.64199 93.7552 2.90643 93.4541 3.46295C93.1385 4.07116 93.2389 4.90534 93.7697 5.3645C94.1796 5.72509 94.7067 5.909 95.2206 6.0929C96.0525 6.39821 96.8904 6.69389 97.721 7.0016C98.461 7.29729 99.1828 7.68674 99.7342 8.2709C100.235 8.80793 100.558 9.48529 100.658 10.2109C100.779 10.9958 100.745 11.824 100.431 12.5632C100.159 13.1953 99.712 13.7373 99.1417 14.1258C98.4708 14.5744 97.708 14.8691 96.9085 14.9888C95.8025 15.1594 94.6743 15.1247 93.5811 14.8866C92.6659 14.7061 91.7953 14.3483 91.019 13.8337C91.019 12.9923 91.019 12.1377 91.019 11.2891C91.992 12.082 93.1514 12.6168 94.3887 12.8433C94.9258 12.9362 95.4721 12.9656 96.0162 12.931C96.5675 12.8889 97.1334 12.7772 97.6049 12.4755C97.7888 12.3622 97.947 12.2121 98.0694 12.0347C98.1918 11.8574 98.2757 11.6567 98.3159 11.4454C98.4078 10.9477 98.3219 10.3912 97.9822 10.003C97.6835 9.65559 97.2628 9.44765 96.8517 9.26254C96.177 8.97647 95.4781 8.75651 94.7962 8.50169C94.1324 8.2685 93.4662 8.0293 92.8617 7.66871C92.2907 7.35002 91.8061 6.89837 91.4494 6.35253C91.1186 5.79875 90.9347 5.17049 90.915 4.52671C90.8715 3.94508 90.9608 3.3612 91.1762 2.81868C91.4607 2.14517 91.9476 1.57549 92.5703 1.18759V1.18759Z" fill="white"/>
<path fill-rule="evenodd" clip-rule="evenodd" d="M108.196 0.715269C108.88 0.473281 109.6 0.351264 110.326 0.354673C111.803 0.330633 113.306 0.680412 114.558 1.46531C114.581 1.47697 114.601 1.49613 114.612 1.51981C114.624 1.5435 114.628 1.57039 114.623 1.59633C114.623 2.39765 114.623 3.20338 114.623 4.01352C114.051 3.56559 113.421 3.19682 112.75 2.91731C111.898 2.57465 110.978 2.42835 110.061 2.4894C109.593 2.50992 109.136 2.63306 108.721 2.85C108.42 3.01172 108.182 3.26954 108.045 3.58201C107.803 4.19142 107.93 4.97271 108.46 5.39581C109.037 5.85978 109.774 6.03767 110.453 6.30091C111.247 6.6014 112.063 6.85022 112.838 7.2012C113.548 7.53415 114.223 7.9909 114.683 8.63276C115.183 9.3179 115.38 10.1821 115.371 11.0187C115.392 11.7721 115.181 12.514 114.767 13.145C114.331 13.7695 113.726 14.2587 113.022 14.5562C112.274 14.8743 111.474 15.0524 110.662 15.0814C109.758 15.1249 108.853 15.0379 107.974 14.823C107.158 14.6356 106.382 14.302 105.686 13.8386C105.66 12.9888 105.686 12.1366 105.675 11.2856C106.923 12.288 108.491 12.9227 110.104 12.9395C110.801 12.9515 111.529 12.8794 112.149 12.5404C112.48 12.3665 112.74 12.0841 112.885 11.7411C113.042 11.3259 113.048 10.8696 112.903 10.4502C112.75 10.0661 112.464 9.74817 112.098 9.55228C111.455 9.17366 110.733 8.96091 110.043 8.70368C109.216 8.39838 108.361 8.14596 107.593 7.70363C106.962 7.36682 106.432 6.86896 106.059 6.26124C105.673 5.59774 105.542 4.81886 105.575 4.0568C105.595 3.34548 105.833 2.6571 106.256 2.08313C106.754 1.44846 107.429 0.97292 108.196 0.715269V0.715269Z" fill="white"/>
<path fill-rule="evenodd" clip-rule="evenodd" d="M58.0303 0.365234C61.3118 3.47598 64.5924 6.58793 67.8723 9.70108C67.8723 6.66365 67.8723 3.62743 67.8723 0.590006C68.655 0.590006 69.4373 0.590006 70.2192 0.590006C70.2192 5.43001 70.2192 10.2708 70.2192 15.1124C68.0114 12.9745 65.8003 10.8378 63.5861 8.70222C62.516 7.67573 61.4581 6.63601 60.382 5.61552C60.3747 8.70343 60.382 11.7913 60.3759 14.8792C59.5936 14.8792 58.8126 14.8792 58.0315 14.8792C58.0315 10.0424 58.0315 5.20524 58.0315 0.367638L58.0303 0.365234Z" fill="white"/>
<path fill-rule="evenodd" clip-rule="evenodd" d="M0 0.595872H3.76875C4.6514 0.604286 5.54129 0.556207 6.41426 0.708859C7.2437 0.847088 8.07193 1.14157 8.71154 1.69689C9.23543 2.14707 9.60276 2.75036 9.76104 3.42054C9.94474 4.17421 9.92052 4.96319 9.69091 5.70432C9.43095 6.48561 8.8518 7.18878 8.06709 7.49408C8.19647 7.57822 8.3476 7.61428 8.48302 7.69361C9.20148 8.06776 9.76503 8.68075 10.0754 9.42568C10.3058 9.98684 10.3942 10.5956 10.3329 11.1986C10.2916 11.9813 10.0092 12.7324 9.52405 13.3502C8.96303 14.0437 8.12997 14.4704 7.2703 14.6796C6.53154 14.8647 5.76497 14.8899 5.00566 14.8779H0C0 10.1156 0 5.35494 0 0.595872ZM2.36983 2.69695C2.36983 3.9963 2.36258 5.29565 2.36983 6.595C3.33711 6.58658 4.29471 6.595 5.25715 6.595C5.8617 6.56495 6.51099 6.44715 6.98012 6.03607C7.31451 5.72278 7.51056 5.29064 7.52542 4.83408C7.56048 4.34247 7.47947 3.80758 7.15181 3.41814C6.86283 3.06956 6.42635 2.88566 5.98745 2.79791C5.49303 2.71584 4.99149 2.68402 4.49059 2.70296L2.36983 2.69695ZM2.36983 8.60953C2.36983 9.99903 2.36983 11.3889 2.36983 12.7792H5.44094C6.0213 12.772 6.62585 12.6783 7.11916 12.3573C7.32801 12.222 7.50669 12.0455 7.64416 11.8387C7.78163 11.632 7.87496 11.3994 7.91837 11.1553C8.03353 10.6168 7.94758 10.0549 7.67656 9.57472C7.43431 9.1992 7.06785 8.91949 6.64036 8.78382C6.25508 8.65656 5.8504 8.59717 5.44456 8.60833C4.42408 8.60833 3.4024 8.60833 2.38071 8.60833L2.36983 8.60953Z" fill="white"/>
<path fill-rule="evenodd" clip-rule="evenodd" d="M15.5465 0.59467H17.9792C17.9792 3.05394 17.9792 5.51281 17.9792 7.97127C17.9792 8.83671 17.9441 9.71656 18.1606 10.5628C18.3262 11.2527 18.6732 11.927 19.2572 12.3573C19.8412 12.7876 20.5679 12.9415 21.2764 12.9403C21.9849 12.9391 22.7503 12.7925 23.3319 12.3501C23.8096 11.974 24.1585 11.46 24.3306 10.8789C24.5327 10.1982 24.6233 9.48955 24.599 8.78021C24.599 6.0517 24.599 3.32359 24.599 0.595872C25.4099 0.595872 26.2212 0.595872 27.0329 0.595872V9.11196C27.0523 10.2827 26.8516 11.4835 26.2833 12.5208C25.7841 13.4316 24.9966 14.1533 24.0428 14.5738C22.9667 15.0546 21.7613 15.1748 20.5957 15.0798C19.7757 15.022 18.976 14.7991 18.2452 14.4248C17.7114 14.1448 17.2369 13.7653 16.8475 13.3069C16.3939 12.7608 16.0562 12.1291 15.8548 11.4498C15.6303 10.6764 15.5255 9.87348 15.5441 9.06869C15.5441 6.24161 15.5441 3.41574 15.5441 0.591064L15.5465 0.59467Z" fill="white"/>
<path fill-rule="evenodd" clip-rule="evenodd" d="M48.6813 0.594858C49.4902 0.594858 50.3003 0.594858 51.1104 0.594858C51.1104 5.35473 51.1104 10.1158 51.1104 14.8757C50.2991 14.8901 49.4854 14.8757 48.6729 14.8757C48.6729 10.1134 48.6729 5.35073 48.6729 0.587646L48.6813 0.594858Z" fill="white"/>
<path fill-rule="evenodd" clip-rule="evenodd" d="M76.6989 0.58759C79.5947 0.594802 82.4892 0.58759 85.385 0.58759V2.74516H79.0856V6.16241H84.7333C84.7333 6.87078 84.7333 7.57835 84.7333 8.28512H79.0856V12.7H85.3838C85.3838 13.4212 85.3838 14.1464 85.3838 14.8756C82.4892 14.8756 79.5935 14.8756 76.6977 14.8756C76.688 11.0148 76.6977 7.15405 76.6977 3.29327C76.6977 2.38937 76.6904 1.49028 76.6977 0.583984L76.6989 0.58759Z" fill="white"/>
<path fill-rule="evenodd" clip-rule="evenodd" d="M18.9438 22.0566C22.2011 25.1201 25.4596 28.1844 28.7194 31.2495C28.7194 28.2613 28.7194 25.2736 28.7194 22.2862H31.0457C31.0457 27.0453 31.0457 31.8044 31.0457 36.5634C27.7851 33.4543 24.5299 30.3395 21.2798 27.2192C21.2798 30.2594 21.2798 33.2992 21.2798 36.3387H18.9414C18.9414 31.5772 18.9414 26.8165 18.9414 22.0566H18.9438Z" fill="white"/>
<path fill-rule="evenodd" clip-rule="evenodd" d="M39.333 22.5636C40.2544 22.1441 41.2857 22.0095 42.2917 22.054C43.6362 22.1057 44.9844 22.4627 46.1233 23.1875C46.1233 24.0112 46.1233 24.835 46.1233 25.6588C45.5599 25.2214 44.9407 24.86 44.2819 24.5842C43.4014 24.2271 42.4487 24.0813 41.501 24.1587C41.0482 24.1891 40.6077 24.3184 40.2108 24.5373C39.9117 24.7062 39.6812 24.9736 39.5591 25.2933C39.3741 25.8342 39.4636 26.5038 39.8892 26.9124C40.2205 27.2418 40.6618 27.4233 41.0911 27.5879C41.9471 27.8981 42.8044 28.2034 43.6616 28.5111C44.3519 28.7444 44.9956 29.0963 45.5635 29.5508C46.1143 30.0066 46.5111 30.6196 46.7001 31.3069C46.887 32.0044 46.9097 32.7352 46.7666 33.4428C46.6204 34.1265 46.2668 34.7491 45.7534 35.2266C45.2052 35.7274 44.5437 36.0895 43.8248 36.2819C42.9351 36.5224 42.0102 36.6079 41.0911 36.5344C40.1387 36.4759 39.2023 36.2635 38.3186 35.9057C37.9369 35.7508 37.5739 35.5536 37.2365 35.3179C37.2449 34.4826 37.2365 33.6472 37.2365 32.8118C38.477 33.807 40.0416 34.4273 41.6448 34.4393C42.3292 34.4489 43.0438 34.3768 43.6544 34.045C44.0193 33.8561 44.2963 33.5338 44.427 33.1459C44.5471 32.7518 44.5327 32.3291 44.3859 31.944C44.2323 31.5485 43.8877 31.2612 43.5238 31.0593C42.8999 30.7131 42.2131 30.5076 41.5445 30.2648C40.7852 29.9847 40.0017 29.7515 39.2847 29.3693C38.639 29.0303 38.0405 28.564 37.6512 27.9413C37.2748 27.3049 37.0901 26.5744 37.1192 25.8366C37.1094 25.1376 37.3149 24.4523 37.708 23.8726C38.1177 23.296 38.6785 22.8421 39.3294 22.56L39.333 22.5636Z" fill="white"/>
<path fill-rule="evenodd" clip-rule="evenodd" d="M9.60938 22.2859H12.0433V36.3383H9.60938C9.60938 31.6538 9.60938 26.9696 9.60938 22.2859Z" fill="white"/>
<path fill-rule="evenodd" clip-rule="evenodd" d="M53.0977 22.2859H55.5159V36.3383H53.0977C53.0977 31.6538 53.0977 26.9696 53.0977 22.2859Z" fill="white"/>
<path fill-rule="evenodd" clip-rule="evenodd" d="M62.5696 22.2859H68.1713C69.6222 22.3051 71.101 22.6825 72.2823 23.5372C73.2814 24.2624 74.0366 25.2709 74.449 26.4303C74.7885 27.3855 74.9523 28.3936 74.9326 29.4065C74.9205 30.8489 74.5844 32.3201 73.7779 33.5341C73.1009 34.5596 72.1222 35.3524 70.9752 35.8047C70.0826 36.1534 69.1328 36.3348 68.1737 36.3395H62.5684C62.5684 31.655 62.5684 26.9708 62.5684 22.2871L62.5696 22.2859ZM64.9805 24.3942C64.9805 27.662 64.9805 30.9306 64.9805 34.2H67.2778C67.7482 34.2136 68.2191 34.1984 68.6876 34.1543C69.5775 34.0522 70.4614 33.7132 71.1179 33.093C71.6901 32.54 72.0951 31.8388 72.2871 31.0688C72.4784 30.3157 72.5457 29.5367 72.4866 28.7622C72.449 28.0653 72.2851 27.3808 72.003 26.7417C71.7262 26.1237 71.2903 25.5893 70.7395 25.1923C70.0926 24.7508 69.3395 24.4879 68.557 24.4302C68.0903 24.3822 67.62 24.4014 67.1508 24.3978L64.9805 24.3942Z" fill="white"/>
<path fill-rule="evenodd" clip-rule="evenodd" d="M80.0156 22.2858C82.8933 22.2858 85.7717 22.2858 88.651 22.2858C88.651 22.9902 88.651 23.6946 88.651 24.3989H82.3963C82.3963 25.5252 82.3963 26.6503 82.3963 27.7753C84.2632 27.7753 86.1304 27.7753 87.9981 27.7753C87.9981 28.4665 87.9981 29.1576 87.9981 29.8499C86.1288 29.862 84.2583 29.8499 82.3891 29.8499V34.2023H88.6522C88.6522 34.9131 88.6522 35.6239 88.6522 36.3347H80.0156C80.0156 31.6501 80.0156 26.966 80.0156 22.2822V22.2858Z" fill="white"/>
<path fill-rule="evenodd" clip-rule="evenodd" d="M95.8484 22.2859H101.142C102.018 22.3027 102.909 22.4433 103.703 22.8304C104.337 23.1252 104.873 23.5955 105.245 24.185C105.665 24.8923 105.872 25.7046 105.842 26.5253C105.849 27.3559 105.709 28.2153 105.278 28.9389C104.948 29.4813 104.459 29.9107 103.877 30.1697C103.453 30.3581 103.006 30.4875 102.547 30.5544C104.249 32.4824 105.952 34.41 107.655 36.3371C106.737 36.3371 105.82 36.3371 104.903 36.3371C103.251 34.438 101.598 32.5385 99.946 30.6385C99.3813 30.6385 98.8167 30.6385 98.2532 30.6385C98.2532 32.5389 98.2593 34.4392 98.2532 36.3395C97.4504 36.3395 96.6476 36.3395 95.8447 36.3395C95.8447 31.655 95.8447 26.9708 95.8447 22.2871L95.8484 22.2859ZM98.2605 24.3557C98.2605 25.7845 98.2605 27.2136 98.2605 28.6432H101.056C101.689 28.6324 102.356 28.4677 102.832 28.0326C103.152 27.7327 103.36 27.3333 103.421 26.9003C103.518 26.3536 103.413 25.7905 103.125 25.3149C102.825 24.8803 102.37 24.5753 101.853 24.4615C101.342 24.3257 100.81 24.3593 100.288 24.3557H98.2605Z" fill="white"/>
</svg>
