<?xml version="1.0"?>
<svg xmlns="http://www.w3.org/2000/svg" width="167" height="40" viewBox="0 0 167 40" fill="none">
<path d="M24.2217 28.4884L17.2579 31.4813V31.182C15.9152 31.5219 14.4278 31.7177 13.0189 31.7807C6.46986 31.7177 1.27164 28.3294 1.21115 24.2974V22.8006C3.36216 25.8927 7.74088 27.9645 13.0189 27.8897C14.8045 27.9645 16.6312 27.6851 18.166 27.291L18.7716 25.7942C16.9511 26.3311 14.9641 26.7047 13.0189 26.6922C6.46986 26.7047 1.27164 23.3164 1.21115 19.2096V18.0121C3.36216 20.8704 7.73153 22.9428 13.0189 22.8012C15.3976 22.9428 17.7238 22.4482 19.6796 21.6038L19.9827 20.107C18.0718 21.1036 15.5953 21.6824 13.0189 21.6038C6.46986 21.6824 1.27164 18.294 1.21115 14.1211V12.9237C3.36216 15.8486 7.74088 17.9204 13.0189 18.0121C16.0187 17.9204 18.8626 17.1365 21.1939 15.9166L21.497 14.1205C19.3809 15.6709 16.2919 16.67 13.0189 16.8147C6.46986 16.67 1.27227 13.281 1.21115 9.03265C1.27164 4.99195 6.46986 1.6036 13.0189 1.54997C16.923 1.6036 20.549 2.95695 22.7081 5.14163L22.9183 5.48776L24.445 5.494L24.2217 5.14163C22.0745 2.25658 17.78 0.352539 13.0189 0.352539C5.77261 0.352539 0 4.30094 0 9.03265V24.5967C0.254454 29.2156 5.89547 32.9775 13.0189 32.9775C17.7238 32.9775 21.9522 31.1483 24.2217 28.4884Z" fill="white"/>
<path d="M21.389 39.0196L23.8338 28.7485L16.8057 31.7695L21.084 13.9465H12.833L14.9722 5.18597H41.2507L39.1116 13.9465H30.5562L28.7226 18.7799L38.1948 14.8527L21.389 39.0196ZM25.6673 26.6337L24.445 32.6757L34.5283 17.5719L26.2779 21.1972L29.945 12.7385H38.1948L39.7228 6.39463H15.8889L14.361 12.7385H22.6114L18.6387 29.6553L25.6673 26.6349V26.6337ZM59.3544 10.9717C59.282 11.9733 58.9122 12.7616 58.2449 13.3378C57.5776 13.9135 56.6982 14.201 55.6068 14.201C54.4137 14.201 53.4739 13.7994 52.7903 12.9955C52.1062 12.1922 51.7638 11.0889 51.7638 9.68631V9.11691C51.7638 8.22196 51.9216 7.43302 52.2372 6.75074C52.5527 6.06908 53.0036 5.5452 53.5893 5.18098C54.1755 4.81614 54.8565 4.63403 55.633 4.63403C56.7069 4.63403 57.5726 4.92216 58.2293 5.4978C58.8854 6.07282 59.2646 6.88108 59.3675 7.92135H57.4491C57.4023 7.32014 57.2345 6.8842 56.947 6.61353C56.6589 6.34286 56.2211 6.20753 55.633 6.20753C54.9931 6.20753 54.5148 6.43641 54.1973 6.8948C53.8792 7.3532 53.7165 8.06417 53.7077 9.02773V9.73122C53.7077 10.7372 53.8605 11.4725 54.1649 11.9371C54.4705 12.4017 54.9507 12.6344 55.6074 12.6344C56.1999 12.6344 56.6421 12.499 56.9339 12.2284C57.2264 11.9577 57.3936 11.5386 57.436 10.9717H59.3544V10.9717ZM69.2606 9.62893C69.2606 10.5457 69.0984 11.349 68.7741 12.0394C68.4505 12.7304 67.9871 13.263 67.3834 13.6385C66.7803 14.0133 66.0887 14.201 65.3085 14.201C64.537 14.201 63.8485 14.0158 63.2429 13.6447C62.6379 13.2736 62.1683 12.7441 61.8359 12.0556C61.5035 11.3671 61.3351 10.575 61.3308 9.67945V9.21919C61.3308 8.30241 61.496 7.49601 61.8266 6.79938C62.1571 6.10213 62.6236 5.56703 63.2273 5.19346C63.8304 4.82051 64.5202 4.63403 65.296 4.63403C66.0718 4.63403 66.7616 4.82113 67.3647 5.19346C67.9678 5.56703 68.4349 6.10213 68.7648 6.79876C69.0953 7.49601 69.2606 8.30054 69.2606 9.21295V9.62893V9.62893ZM67.3167 9.20672C67.3167 8.23006 67.142 7.48853 66.7928 6.98087C66.4429 6.47383 65.944 6.22 65.296 6.22C64.6517 6.22 64.1553 6.47072 63.8054 6.97151C63.4562 7.47231 63.2791 8.20636 63.2753 9.17491V9.62893C63.2753 10.5794 63.4499 11.3172 63.7992 11.8411C64.1484 12.3656 64.6518 12.6281 65.3085 12.6281C65.9521 12.6281 66.4466 12.3755 66.7928 11.8704C67.1377 11.3652 67.3123 10.6287 67.3167 9.66074V9.20672ZM73.6917 14.0731H71.7733V4.76188H73.6917V14.0731ZM84.0395 14.0731H82.1205L78.386 7.94692V14.0731H76.4676V4.76188H78.386L82.1274 10.9012V4.76188H84.0395V14.0731ZM93.5366 6.31605H90.6846V14.0731H88.7662V6.31605H85.9523V4.76188H93.5366V6.31605V6.31605ZM101.23 10.0381H97.5467V12.5321H101.869V14.0731H95.6277V4.76188H101.857V6.31605H97.5467V8.53503H101.23V10.0381V10.0381ZM105.911 12.5321H109.985V14.0731H103.993V4.76188H105.911V12.5327V12.5321ZM117.685 10.0374H114.001V12.5321H118.324V14.0731H112.083V4.76188H118.312V6.31605H114.001V8.53503H117.685V10.0381V10.0374ZM127.815 12.8963C127.469 13.3098 126.981 13.631 126.35 13.8586C125.719 14.0869 125.02 14.2016 124.253 14.2016C123.447 14.2016 122.74 14.0251 122.133 13.6734C121.525 13.3216 121.056 12.8115 120.726 12.1417C120.395 11.4725 120.226 10.686 120.217 9.78236V9.14872C120.217 8.21946 120.374 7.41494 120.688 6.73515C121.001 6.05536 121.453 5.5346 122.043 5.17475C122.634 4.81427 123.325 4.63403 124.118 4.63403C125.222 4.63403 126.086 4.89722 126.709 5.42421C127.331 5.95058 127.699 6.71706 127.815 7.72303H125.947C125.862 7.1898 125.673 6.80001 125.381 6.55241C125.089 6.30544 124.687 6.18196 124.176 6.18196C123.523 6.18196 123.027 6.42706 122.685 6.91726C122.345 7.40745 122.172 8.13651 122.168 9.10444V9.69878C122.168 10.6754 122.353 11.4126 122.724 11.9115C123.095 12.4105 123.639 12.6599 124.355 12.6599C125.075 12.6599 125.59 12.5065 125.896 12.1997V10.5944H124.15V9.18115H127.815V12.8963V12.8963ZM133.813 10.6648H132.285V14.0731H130.366V4.76188H133.826C134.926 4.76188 135.775 5.00698 136.371 5.4978C136.968 5.988 137.266 6.68027 137.266 7.57584C137.266 8.21135 137.129 8.74084 136.854 9.16493C136.579 9.58902 136.162 9.92704 135.604 10.1784L137.618 13.9833V14.0731H135.559L133.813 10.6648V10.6648ZM132.285 9.11067H133.832C134.314 9.11067 134.687 8.98781 134.951 8.74271C135.216 8.49761 135.348 8.16021 135.348 7.72926C135.348 7.29021 135.223 6.9447 134.974 6.69336C134.724 6.44203 134.342 6.31605 133.826 6.31605H132.285V9.11067H132.285ZM144.979 12.1541H141.615L140.976 14.0731H138.936L142.402 4.76188H144.18L147.665 14.0731H145.625L144.979 12.1548V12.1541ZM142.134 10.6012H144.461L143.291 7.11496L142.134 10.6012ZM151.451 10.7927V14.0731H149.533V4.76188H153.165C153.864 4.76188 154.479 4.88973 155.01 5.14606C155.541 5.40176 155.949 5.76473 156.234 6.23622C156.52 6.70708 156.663 7.24343 156.663 7.84464C156.663 8.75706 156.351 9.47614 155.726 10.0025C155.101 10.5295 154.237 10.7927 153.133 10.7927H151.451V10.7927ZM151.451 9.23852H153.165C153.672 9.23852 154.059 9.1194 154.325 8.88054C154.592 8.64168 154.725 8.30054 154.725 7.85774C154.725 7.40122 154.591 7.03201 154.322 6.75074C154.054 6.47009 153.683 6.32478 153.21 6.31605H151.451V9.23852ZM166.556 14.0731H164.638V10.083H160.897V14.0731H158.978V4.76188H160.897V8.53503H164.638V4.76188H166.556V14.0731Z" fill="white"/>
<path d="M51.8759 22.3265H58.4618V28.3511H51.7637V27.453H57.4889V23.2246H51.8759V22.3265ZM67.059 21.0636L67.7793 21.6998C67.0683 22.4762 66.2077 23.2246 65.216 23.9356V28.8937H64.2431V24.5998C63.2342 25.2421 62.1734 25.7991 61.0718 26.265L60.5666 25.4511C61.7079 24.9646 62.896 24.3191 64.1122 23.4959C65.3189 22.6727 66.3012 21.8588 67.059 21.0636V21.0636ZM70.6419 21.5501C71.5306 21.9991 72.5035 22.6166 73.57 23.393L72.9619 24.132C71.9142 23.3837 70.9787 22.8037 70.1648 22.3733L70.6419 21.5501ZM76.9284 22.9066L77.8265 23.262C77.181 24.7308 76.3297 25.9375 75.2632 26.8917C74.1126 27.8927 72.728 28.5943 71.1003 28.9873L70.6512 28.1266C72.057 27.8026 73.3654 27.1484 74.468 26.2182C75.5345 25.3014 76.3484 24.1975 76.9284 22.9066V22.9066ZM80.1091 21.6717H86.0869V22.5698H80.1091V21.6717ZM79.2858 23.8795H87.144V24.7682H83.7949C83.7388 25.7224 83.533 26.4895 83.1962 27.0882C82.7752 27.8085 82.0362 28.4634 80.9791 29.0434L80.3429 28.323C81.2504 27.8366 81.8865 27.3221 82.242 26.7701C82.5694 26.2556 82.7659 25.5914 82.822 24.7682H79.2858V23.8795V23.8795ZM90.362 21.3349H91.3537V27.7805C92.1769 27.4998 93.0282 27.0508 93.8982 26.4334C94.7589 25.8159 95.4605 25.1517 95.9844 24.4595L96.7515 25.0208C96.0005 25.9666 95.1074 26.7902 94.104 27.4624C93.0962 28.1074 91.995 28.5934 90.8391 28.9031L90.362 28.5008V21.3349V21.3349ZM105.582 20.4556C106.013 20.8578 106.359 21.2788 106.612 21.7091L106.097 22.0833C105.825 21.6226 105.491 21.2009 105.105 20.8298L105.582 20.4556ZM104.198 20.4836C104.61 20.8578 104.956 21.2882 105.218 21.7559L104.712 22.1114C104.436 21.6482 104.099 21.2236 103.712 20.8485L104.198 20.4836ZM101.111 21.0169L102.009 21.3069C101.896 21.62 101.771 21.929 101.635 22.233H104.638L105.208 22.5324C104.928 24.104 104.348 25.423 103.468 26.5082C102.57 27.5747 101.391 28.3979 99.9228 28.9779L99.4083 28.1547C100.615 27.7056 101.607 27.0882 102.374 26.3024C103.234 25.4417 103.805 24.3846 104.104 23.1404H101.139C101.017 23.3369 100.886 23.524 100.755 23.7111C100.26 24.3846 99.6328 25.0114 98.8657 25.6008L98.1921 24.9646C98.8937 24.4127 99.4924 23.814 99.9883 23.1591C100.471 22.5074 100.85 21.7847 101.111 21.0169V21.0169ZM108.801 21.6156H114.021V22.5136H108.801V21.6156ZM108.015 23.5988H114.442L114.956 23.9917C114.535 25.3295 113.974 26.3679 113.272 27.1069C112.449 27.9489 111.298 28.5569 109.83 28.9311L109.343 28.0798C110.559 27.7805 111.532 27.3221 112.253 26.714C112.907 26.1527 113.422 25.4137 113.777 24.4969H108.015V23.5988V23.5988ZM116.865 22.0178H123.478L123.974 22.4014C123.6 23.9356 122.964 25.2546 122.066 26.3585C121.149 27.4811 119.97 28.3605 118.52 28.9966L117.894 28.2482C119.091 27.7056 120.101 27.0321 120.906 26.2182C121.804 25.2921 122.449 24.1882 122.842 22.9159H116.865V22.0178V22.0178ZM133.114 20.5772C133.554 20.9794 133.9 21.4004 134.152 21.8307L133.638 22.2049C133.363 21.7429 133.03 21.3184 132.646 20.942L133.114 20.5772ZM132.188 21.204C132.599 21.5875 132.946 22.0085 133.208 22.4762L132.702 22.8411C132.431 22.3746 132.093 21.9493 131.701 21.5782L132.188 21.204ZM127.426 21.3723C128.568 21.6811 129.55 22.0927 130.373 22.6072L129.84 23.3649C129.11 22.9159 128.175 22.5324 127.015 22.233L127.426 21.3723ZM132.992 23.1311L133.9 23.4772C133.325 24.7879 132.461 25.9519 131.374 26.8824C130.177 27.9114 128.792 28.6037 127.22 28.9779L126.771 28.0892C128.188 27.7664 129.51 27.1195 130.635 26.1995C131.701 25.3201 132.487 24.3004 132.992 23.1311ZM126.603 23.4585C127.576 23.683 128.558 24.0759 129.54 24.6279L129.035 25.4417C128.221 24.974 127.277 24.5904 126.201 24.3098L126.603 23.4585ZM141.908 24.1133L142.506 24.5624C141.936 25.6288 141.29 26.4521 140.57 27.0321L139.906 26.3959C140.411 25.9656 140.832 25.5353 141.15 25.105L139.092 25.4698L139.719 28.6785L138.792 28.8376L138.156 25.6288L136.472 25.9282L136.295 25.0675L137.988 24.7775L137.66 23.1217L138.596 22.944L138.923 24.6185L141.908 24.1133V24.1133ZM152.104 20.7549C152.385 20.7549 152.619 20.8485 152.815 21.0543C153.012 21.2414 153.115 21.4753 153.115 21.7653C153.115 22.0459 153.012 22.2798 152.815 22.4762C152.619 22.6633 152.385 22.7662 152.104 22.7662C151.824 22.7662 151.581 22.6633 151.394 22.4762C151.188 22.2798 151.094 22.0459 151.094 21.7653C151.094 21.4753 151.188 21.2414 151.394 21.0543C151.581 20.8485 151.824 20.7549 152.104 20.7549ZM150.103 21.8214C150.701 22.7007 151.281 23.7485 151.824 24.9459C152.385 26.1901 152.806 27.3688 153.077 28.4914L152.095 28.6785C151.833 27.6121 151.44 26.4708 150.907 25.2733C150.383 24.0946 149.831 23.0937 149.251 22.2517L150.103 21.8214ZM146.697 22.0365L147.689 22.1582C147.567 23.4117 147.315 24.5904 146.922 25.6756C146.53 26.7692 145.974 27.7973 145.275 28.7253L144.359 28.2669C145.045 27.4034 145.591 26.4374 145.977 25.4043C146.37 24.3566 146.604 23.234 146.697 22.0365V22.0365ZM152.104 21.2788C151.974 21.2788 151.861 21.3256 151.768 21.4191C151.719 21.4627 151.681 21.5162 151.655 21.5759C151.629 21.6356 151.617 21.7002 151.618 21.7653C151.618 21.8962 151.665 22.0085 151.768 22.102C151.861 22.1956 151.974 22.2424 152.104 22.2424C152.235 22.2424 152.348 22.1956 152.441 22.102C152.535 22.0085 152.591 21.8962 152.591 21.7653C152.591 21.6343 152.535 21.5127 152.441 21.4191C152.398 21.374 152.345 21.3382 152.287 21.3141C152.229 21.2899 152.167 21.2779 152.104 21.2788V21.2788ZM154.836 21.5501C155.725 21.9991 156.698 22.6166 157.764 23.393L157.156 24.132C156.108 23.3837 155.173 22.8037 154.359 22.3733L154.836 21.5501V21.5501ZM161.123 22.9066L162.021 23.262C161.375 24.7308 160.524 25.9375 159.457 26.8917C158.307 27.8927 156.922 28.5943 155.295 28.9873L154.845 28.1266C156.251 27.8026 157.56 27.1484 158.662 26.2182C159.729 25.3014 160.543 24.1975 161.123 22.9066V22.9066Z" fill="white"/>
</svg>
