<?xml version="1.0" encoding="UTF-8" standalone="no"?>
<svg xmlns="http://www.w3.org/2000/svg" version="1.1" width="260" height="98" viewBox="0 0 260 98"><svg width="261" height="98" viewBox="0 0 264.58333 99.607416" version="1.1" x="-1" y="0">
    <g transform="translate(260.95542,41.213839)">
        <g fill="#fff">
            <path d="m -260.95542,-23.351576 h 15.74097 l 9.16577,23.44971543 9.28475,-23.44971543 h 15.32641 l -23.07818,55.513102 h -15.42354 l 6.31728,-14.710096 z"/>
            <path d="m -195.47141,-24.285092 c -11.82693,0 -19.30359,10.60691 -19.30359,21.1697058 0,11.886248 8.19723,21.3099212 19.07922,21.3099212 8.11755,0 11.17827,-4.945745 11.17827,-4.945745 v 3.852645 h 13.72915 v -40.452766 h -13.72915 v 3.677524 c 0,0 -3.41477,-4.611285 -10.9539,-4.611285 z m 2.92026,12.999928 c 5.45704,0 8.27307,4.3180081 8.27307,8.2142225 0,4.1954942 -3.01696,8.3127463 -8.27307,8.3127463 -4.35623,0 -8.29289,-3.559984 -8.29289,-8.1341932 0,-4.6389336 3.16648,-8.3927756 8.29289,-8.3927756 z"/>
            <path d="m -166.06011,17.10119 v -58.315029 h 14.35985 v 21.680094 c 0,0 3.41082,-4.746342 10.5543,-4.746342 8.73797,0 13.85746,6.510502 13.85746,15.813727 v 25.56755 h -14.25479 V -4.9639552 c 0,-3.148416 -1.49969,-6.1899038 -4.89676,-6.1899038 -3.45803,0 -5.26021,3.0875793 -5.26021,6.1899038 V 17.10119 Z"/>
            <path d="m -102.80546,-24.280304 c -13.54405,0 -21.60888,10.298919 -21.60888,21.3332079 0,12.5572045 9.76468,21.1416311 21.66017,21.1416311 11.529646,0 21.618462,-8.1948543 21.618462,-20.9309613 0,-13.9356097 -10.563298,-21.5438777 -21.669752,-21.5438777 z m 0.12933,13.114187 c 4.784243,0 8.094514,3.9847543 8.094514,8.2340454 0,3.62432286 -3.084573,8.0945471 -8.094514,8.0945471 -4.5906,0 -8.03569,-3.6823588 -8.03569,-8.1341932 0,-4.2885533 2.86425,-8.1943993 8.03569,-8.1943993 z"/>
            <path d="m -57.212888,-24.280304 c -13.544038,0 -21.608877,10.298919 -21.608877,21.3332079 0,12.5572045 9.764684,21.1416311 21.660172,21.1416311 11.529647,0 21.618463,-8.1948543 21.618463,-20.9309613 0,-13.9356097 -10.563285,-21.5438777 -21.669758,-21.5438777 z m 0.12933,13.114187 c 4.784232,0 8.094517,3.9847543 8.094517,8.2340454 0,3.62432286 -3.084586,8.0945471 -8.094517,8.0945471 -4.59061,0 -8.035691,-3.6823588 -8.035691,-8.1341932 0,-4.2885533 2.864249,-8.1943993 8.035691,-8.1943993 z"/>
            <path d="M -11.543414,-4.6137152 H -28.709769 L -13.474345,-41.213839 H 3.627914 Z"/>
            <circle id="path1155" cx="-24.212173" cy="8.4245415" r="9.5354834"/>
        </g>
        <g fill="#ffffff">
            <path d="m -153.40783,34.514137 c 0,-2.145953 1.39884,-3.104783 3.27854,-3.104783 1.00543,0 1.74856,0.228293 2.40427,0.547903 v -6.894445 c -1.00542,-0.502244 -2.40427,-0.776195 -3.84683,-0.776195 -6.16367,0 -9.79193,3.789661 -9.79193,10.044886 v 0.593561 h -2.92884 v 6.711811 h 2.92884 v 16.117477 h 7.95595 V 41.636875 h 5.37682 v -6.711811 h -5.37682 z"/>
            <path d="M -136.84027,57.754352 V 34.925064 h -7.99967 v 22.829288 z m 0.48085,-29.267146 c 0,-2.465563 -1.96713,-4.611516 -4.50254,-4.611516 -2.44799,0 -4.45883,2.100294 -4.45883,4.611516 0,2.511221 2.01084,4.611515 4.45883,4.611515 2.53541,0 4.50254,-2.145953 4.50254,-4.611515 z"/>
            <path d="m -125.57595,45.609171 c 0,-2.374246 1.13656,-3.698344 2.88512,-3.698344 1.74856,0 2.79769,1.27844 2.79769,3.607027 v 12.236498 h 7.99967 V 43.234925 c 0,-5.524687 -2.88513,-8.94908 -7.60624,-8.94908 -2.66655,0 -4.85225,1.187123 -6.07624,3.424393 v -2.785174 h -7.99966 v 22.829288 h 7.99966 z"/>
            <path d="m -98.811227,34.468479 c -6.612083,0 -10.852933,5.981273 -10.852933,11.962547 0,6.666151 4.65126,11.962547 10.761733,11.962547 4.56005,0 6.29287,-2.785174 6.29287,-2.785174 v 2.191612 h 7.706486 V 35.016382 h -7.706486 v 2.054635 c 0,0 -1.960822,-2.602538 -6.20167,-2.602538 z m 1.64162,7.35103 c 3.100833,0 4.651251,2.419905 4.651251,4.611517 0,2.374246 -1.687219,4.702833 -4.651251,4.702833 -2.41683,0 -4.651263,-2.008978 -4.651263,-4.611517 0,-2.602537 1.77843,-4.702833 4.651263,-4.702833 z"/>
            <path d="m -73.119293,45.609171 c 0,-2.374246 1.136564,-3.698344 2.885124,-3.698344 1.748559,0 2.797695,1.27844 2.797695,3.607027 v 12.236498 h 7.999659 V 43.234925 c 0,-5.524687 -2.885123,-8.94908 -7.606234,-8.94908 -2.666553,0 -4.852252,1.187123 -6.076244,3.424393 v -2.785174 h -7.99966 v 22.829288 h 7.99966 z"/>
            <path d="m -57.076358,46.339709 c 0,7.396688 5.070822,12.053864 11.671634,12.053864 1.704845,0 3.540833,-0.365269 5.245678,-1.278441 v -7.579323 c -1.223991,0.913172 -2.53541,1.369757 -3.977973,1.369757 -2.797694,0 -4.852252,-1.826343 -4.852252,-4.565857 0,-2.739515 2.054558,-4.565858 4.852252,-4.565858 1.398848,0 2.710268,0.410927 3.977973,1.27844 v -7.579323 c -1.529989,-0.776196 -3.40969,-1.187123 -5.114536,-1.187123 -6.863096,0 -11.802776,5.068101 -11.802776,12.053864 z"/>
            <path d="m -22.756342,49.718444 c -0.830566,1.415415 -1.879702,2.008976 -3.628261,2.008976 -2.098272,0 -3.846831,-1.324098 -4.021686,-3.287417 h 15.125038 c 0.04372,-0.410927 0.08743,-0.95883 0.08743,-1.689367 0,-7.533666 -4.589969,-12.464791 -11.40935,-12.464791 -6.600813,0 -11.627921,5.159419 -11.627921,12.053864 0,7.168396 4.895967,12.053864 11.890204,12.053864 4.93968,0 8.65537,-2.191612 10.447642,-6.163908 z m -7.606234,-6.072592 c 0.174856,-1.689367 1.661132,-2.967807 3.715689,-2.967807 2.054558,0 3.540833,1.187123 3.715688,2.967807 z"/>
        </g>
    </g>
</svg></svg>
