<?xml version="1.0"?>
<svg xmlns="http://www.w3.org/2000/svg" width="59" height="31" viewBox="0 0 59 31" fill="none">
<g clip-path="url(#clip0)">
<path d="M40.6875 0H4.83865C2.50648 0 0.607422 1.8824 0.607422 4.23123V10.9779C0.607422 13.3101 2.50648 15.2091 4.83865 15.2091H40.6875C43.0197 15.2091 44.9188 13.3101 44.9188 10.9779V4.23123C44.9188 1.8824 43.0197 0 40.6875 0ZM16.4162 10.8446C16.2163 11.2777 15.8998 11.6442 15.5167 11.9108C15.1002 12.1939 14.6171 12.3605 14.1174 12.4105C13.7676 12.4438 12.918 12.4771 11.5853 12.4771H8.07038V2.09896H12.2183C12.8347 2.0823 13.451 2.11562 14.0507 2.19891C14.4339 2.26554 14.817 2.39881 15.1335 2.63203C15.4667 2.84859 15.7332 3.14844 15.9331 3.49826C16.1497 3.86475 16.2497 4.28121 16.2497 4.71433C16.2497 5.68051 15.6833 6.56341 14.7837 6.96321C15.3668 7.11314 15.8665 7.4463 16.2497 7.89608C16.5828 8.34586 16.7661 8.89558 16.7661 9.46197C16.7494 9.94506 16.6328 10.4115 16.4162 10.8446ZM25.9282 11.1278C25.595 11.6442 25.0953 12.0607 24.5289 12.2939C23.8126 12.5604 23.0463 12.6937 22.2633 12.677C20.9473 12.677 19.9478 12.3772 19.2482 11.7608C18.5485 11.1611 18.1321 10.2616 17.9988 9.09548L20.0311 8.89558C20.1477 9.57858 20.3976 10.0783 20.7807 10.4115C21.1472 10.728 21.6636 10.8946 22.2967 10.8946C22.963 10.8946 23.4794 10.7447 23.8292 10.4615C24.1457 10.2283 24.329 9.86177 24.3456 9.46197C24.3456 9.22875 24.279 9.01219 24.1291 8.82895C23.9125 8.61239 23.6626 8.46247 23.3794 8.37917C23.1296 8.29588 22.5798 8.14596 21.697 7.9294C20.5642 7.6462 19.7812 7.31304 19.3315 6.89658C18.7151 6.38017 18.3653 5.61388 18.3819 4.81428C18.3819 4.28121 18.5319 3.7648 18.8317 3.33168C19.1482 2.86524 19.598 2.49876 20.1311 2.2822C20.7807 2.01567 21.4804 1.89906 22.18 1.91572C23.4794 1.91572 24.4622 2.19891 25.1286 2.76529C25.7783 3.33168 26.1281 4.09797 26.1614 5.04749L24.0624 5.14744C23.9792 4.61438 23.7793 4.23123 23.4794 3.99802C23.1796 3.7648 22.7464 3.64819 22.1467 3.64819C21.547 3.64819 21.0639 3.78146 20.7141 4.01467C20.4975 4.1646 20.3809 4.39782 20.3809 4.66435C20.3809 4.91423 20.4975 5.14744 20.6974 5.29737C20.964 5.51393 21.597 5.74715 22.6298 5.99702C23.646 6.23024 24.4123 6.48012 24.8954 6.74665C25.3618 6.97987 25.7616 7.34635 26.0448 7.79613C26.5945 8.82895 26.5612 10.1116 25.9282 11.1278ZM35.3235 11.8275C34.6072 12.3772 33.6743 12.6604 32.5582 12.6604C31.1756 12.6604 30.0428 12.1939 29.1599 11.2444C28.277 10.2949 27.8272 9.01219 27.8272 7.37967C27.8272 5.6472 28.277 4.31453 29.1599 3.34834C30.0428 2.39881 31.2256 1.91572 32.6748 1.91572C33.9409 1.91572 34.9737 2.2822 35.7733 3.04849C36.2397 3.49826 36.6062 4.13128 36.8394 4.9642L34.7571 5.46395C34.5572 4.41447 33.6244 3.68151 32.5749 3.71482C31.8586 3.69816 31.1756 3.99802 30.7091 4.54774C30.2261 5.09747 29.9928 5.99702 29.9928 7.22974C29.9928 8.54576 30.2261 9.47863 30.6925 10.0284C31.1423 10.5781 31.8253 10.8779 32.5416 10.8613C33.0746 10.8613 33.591 10.678 33.9908 10.3115C34.3907 9.96172 34.6738 9.39534 34.8571 8.64571L36.8894 9.29539C36.5562 10.4282 36.0398 11.2777 35.3235 11.8275ZM14.3673 8.57907C14.2007 8.34586 13.9841 8.17927 13.7176 8.11264C13.4344 8.01269 12.818 7.96271 11.8518 7.96271H10.1693V10.7447H12.1017C12.5848 10.7613 13.0679 10.7447 13.5343 10.678C13.8342 10.6281 14.1007 10.4781 14.3006 10.2616C14.5005 10.0117 14.6171 9.69519 14.6005 9.37868C14.6005 9.07883 14.5172 8.81229 14.3673 8.57907ZM13.0679 6.18026C13.3844 6.16361 13.6843 6.03034 13.9175 5.81378C14.134 5.59722 14.234 5.29737 14.2173 4.99752C14.234 4.71433 14.134 4.43113 13.9508 4.21457C13.7509 3.99802 13.4677 3.86475 13.1679 3.84809C12.968 3.83143 12.3682 3.81477 11.3687 3.81477H10.1693V6.21358H11.5353C12.3516 6.21358 12.868 6.21358 13.0679 6.18026Z" fill="white"/>
<path d="M54.1973 15.1929H18.3484C16.0162 15.1929 14.1172 17.0753 14.1172 19.4241V26.1708C14.1172 28.5029 16.0162 30.402 18.3484 30.402H54.1973C56.5295 30.402 58.4285 28.5029 58.4285 26.1708V19.4241C58.4285 17.0919 56.5461 15.1929 54.1973 15.1929ZM41.0705 20.1071C41.4869 20.5236 41.9201 20.9567 42.3365 21.3731C42.3865 21.4231 42.3865 21.4564 42.3365 21.5064C41.9201 21.9229 41.4869 22.3393 41.0705 22.7724C41.0205 22.8224 40.9872 22.8224 40.9205 22.7724C40.5041 22.356 40.0876 21.9395 39.6712 21.5231C39.6545 21.5064 39.6212 21.4897 39.6212 21.4564C39.6212 21.4231 39.6378 21.4065 39.6545 21.3898L40.9205 20.1238C40.9872 20.0571 41.0205 20.0738 41.0705 20.1071ZM24.2288 27.3368H22.2798L18.4151 21.0733V27.3368H16.5993V17.7416H18.4817L22.4131 24.1551V17.7416H24.2122V27.3368H24.2288ZM33.5742 27.3368H26.2778V17.7416H33.391V19.3741H28.2102V21.4897H33.0245V23.1056H28.2102V25.721H33.5742V27.3368ZM38.655 25.1713C38.6217 25.1546 38.5884 25.1379 38.5717 25.1046L37.6222 24.1551L35.0235 21.5564C34.9235 21.4564 34.9235 21.4564 35.0235 21.3565L38.5717 17.8082C38.6717 17.7083 38.6717 17.7083 38.7716 17.8082C39.1714 18.208 39.5546 18.6078 39.9544 18.991C40.021 19.0576 40.021 19.0909 39.9544 19.1742C39.2214 19.8905 38.5051 20.6069 37.7721 21.3398C37.6722 21.4398 37.6722 21.4398 37.7721 21.5397L39.9377 23.7053C40.0377 23.8053 40.0377 23.8053 39.9377 23.9052L38.755 25.088C38.7216 25.1213 38.6883 25.1546 38.655 25.1713ZM42.3032 26.2207L41.0538 27.4701C41.0038 27.5201 40.9705 27.5201 40.9205 27.4701L39.6712 26.2207C39.6545 26.2041 39.6379 26.1874 39.6379 26.1708C39.6379 26.1374 39.6545 26.1208 39.6712 26.1041C40.0876 25.6877 40.5041 25.2712 40.9205 24.8547C40.9705 24.8048 41.0038 24.8048 41.0538 24.8547L42.3032 26.1041C42.3698 26.1541 42.3532 26.1874 42.3032 26.2207ZM47.0009 21.5397C45.8015 22.7225 44.6187 23.9219 43.436 25.1046C43.4193 25.1213 43.386 25.1713 43.3527 25.1713C43.336 25.1713 43.3027 25.1546 43.286 25.1379C42.8862 24.7215 42.4698 24.305 42.0533 23.9052C41.9867 23.8386 42.02 23.8053 42.07 23.7553C42.5198 23.3055 42.9529 22.8724 43.4026 22.4226L44.2689 21.5564C44.3688 21.4731 44.3522 21.4731 44.2689 21.3731L42.1033 19.1909C42.0033 19.0909 42.0033 19.0909 42.1033 18.991C42.5031 18.6078 42.9029 18.208 43.286 17.8082C43.3527 17.7416 43.386 17.7416 43.4526 17.8082C44.6354 18.991 45.8348 20.1904 47.0175 21.3731C47.0675 21.4398 47.0675 21.4731 47.0009 21.5397ZM55.4966 26.0875C55.1801 26.5706 54.7304 26.937 54.1973 27.1536C53.531 27.4035 52.8146 27.5201 52.115 27.5034C50.8989 27.5034 49.9661 27.2202 49.3164 26.6538C48.6667 26.0875 48.2836 25.2712 48.1503 24.1884L50.0327 24.0052C50.1493 24.6382 50.3659 25.1046 50.7323 25.4045C51.1321 25.721 51.6319 25.8709 52.1316 25.8542C52.7647 25.8542 53.2311 25.721 53.5476 25.4544C53.8475 25.2379 54.014 24.8881 54.0307 24.5216C54.0307 24.305 53.9641 24.1051 53.8308 23.9385C53.6309 23.7386 53.3977 23.6054 53.1311 23.5221C52.9146 23.4388 52.3982 23.3055 51.5819 23.1056C50.5491 22.8557 49.8161 22.5392 49.3997 22.1561C48.4335 21.3232 48.2336 19.9072 48.9332 18.8577C49.2331 18.4246 49.6495 18.0748 50.1326 17.8915C50.7323 17.6583 51.382 17.5417 52.015 17.5584C53.2144 17.5584 54.1307 17.8249 54.7304 18.358C55.3467 18.891 55.6965 19.6573 55.6965 20.4736L53.7642 20.5569C53.6809 20.0571 53.4976 19.7073 53.2311 19.4907C52.9646 19.2742 52.5481 19.1576 51.9984 19.1576C51.4487 19.1576 50.9989 19.2742 50.6824 19.5074C50.4825 19.6407 50.3659 19.8572 50.3825 20.1071C50.3825 20.3403 50.4825 20.5569 50.6657 20.6901C50.9156 20.89 51.4986 21.1066 52.4482 21.3232C53.1645 21.4731 53.8641 21.7063 54.5471 22.0228C54.9802 22.2394 55.3467 22.5892 55.6133 23.0057C56.113 23.9552 56.0797 25.1546 55.4966 26.0875Z" fill="white"/>
<path d="M54.1973 15.1929H18.3484C16.0162 15.1929 14.1172 17.0753 14.1172 19.4241V26.1708C14.1172 28.5029 16.0162 30.402 18.3484 30.402H54.1973C56.5295 30.402 58.4285 28.5029 58.4285 26.1708V19.4241C58.4285 17.0919 56.5461 15.1929 54.1973 15.1929ZM41.0705 20.1071C41.4869 20.5236 41.9201 20.9567 42.3365 21.3731C42.3865 21.4231 42.3865 21.4564 42.3365 21.5064C41.9201 21.9229 41.4869 22.3393 41.0705 22.7724C41.0205 22.8224 40.9872 22.8224 40.9205 22.7724C40.5041 22.356 40.0876 21.9395 39.6712 21.5231C39.6545 21.5064 39.6212 21.4897 39.6212 21.4564C39.6212 21.4231 39.6378 21.4065 39.6545 21.3898L40.9205 20.1238C40.9872 20.0571 41.0205 20.0738 41.0705 20.1071ZM24.2288 27.3368H22.2798L18.4151 21.0733V27.3368H16.5993V17.7416H18.4817L22.4131 24.1551V17.7416H24.2122V27.3368H24.2288ZM33.5742 27.3368H26.2778V17.7416H33.391V19.3741H28.2102V21.4897H33.0245V23.1056H28.2102V25.721H33.5742V27.3368ZM38.655 25.1713C38.6217 25.1546 38.5884 25.1379 38.5717 25.1046L37.6222 24.1551L35.0235 21.5564C34.9235 21.4564 34.9235 21.4564 35.0235 21.3565L38.5717 17.8082C38.6717 17.7083 38.6717 17.7083 38.7716 17.8082C39.1714 18.208 39.5546 18.6078 39.9544 18.991C40.021 19.0576 40.021 19.0909 39.9544 19.1742C39.2214 19.8905 38.5051 20.6069 37.7721 21.3398C37.6722 21.4398 37.6722 21.4398 37.7721 21.5397L39.9377 23.7053C40.0377 23.8053 40.0377 23.8053 39.9377 23.9052L38.755 25.088C38.7216 25.1213 38.6883 25.1546 38.655 25.1713ZM42.3032 26.2207L41.0538 27.4701C41.0038 27.5201 40.9705 27.5201 40.9205 27.4701L39.6712 26.2207C39.6545 26.2041 39.6379 26.1874 39.6379 26.1708C39.6379 26.1374 39.6545 26.1208 39.6712 26.1041C40.0876 25.6877 40.5041 25.2712 40.9205 24.8547C40.9705 24.8048 41.0038 24.8048 41.0538 24.8547L42.3032 26.1041C42.3698 26.1541 42.3532 26.1874 42.3032 26.2207ZM47.0009 21.5397C45.8015 22.7225 44.6187 23.9219 43.436 25.1046C43.4193 25.1213 43.386 25.1713 43.3527 25.1713C43.336 25.1713 43.3027 25.1546 43.286 25.1379C42.8862 24.7215 42.4698 24.305 42.0533 23.9052C41.9867 23.8386 42.02 23.8053 42.07 23.7553C42.5198 23.3055 42.9529 22.8724 43.4026 22.4226L44.2689 21.5564C44.3688 21.4731 44.3522 21.4731 44.2689 21.3731L42.1033 19.1909C42.0033 19.0909 42.0033 19.0909 42.1033 18.991C42.5031 18.6078 42.9029 18.208 43.286 17.8082C43.3527 17.7416 43.386 17.7416 43.4526 17.8082C44.6354 18.991 45.8348 20.1904 47.0175 21.3731C47.0675 21.4398 47.0675 21.4731 47.0009 21.5397ZM55.4966 26.0875C55.1801 26.5706 54.7304 26.937 54.1973 27.1536C53.531 27.4035 52.8146 27.5201 52.115 27.5034C50.8989 27.5034 49.9661 27.2202 49.3164 26.6538C48.6667 26.0875 48.2836 25.2712 48.1503 24.1884L50.0327 24.0052C50.1493 24.6382 50.3659 25.1046 50.7323 25.4045C51.1321 25.721 51.6319 25.8709 52.1316 25.8542C52.7647 25.8542 53.2311 25.721 53.5476 25.4544C53.8475 25.2379 54.014 24.8881 54.0307 24.5216C54.0307 24.305 53.9641 24.1051 53.8308 23.9385C53.6309 23.7386 53.3977 23.6054 53.1311 23.5221C52.9146 23.4388 52.3982 23.3055 51.5819 23.1056C50.5491 22.8557 49.8161 22.5392 49.3997 22.1561C48.4335 21.3232 48.2336 19.9072 48.9332 18.8577C49.2331 18.4246 49.6495 18.0748 50.1326 17.8915C50.7323 17.6583 51.382 17.5417 52.015 17.5584C53.2144 17.5584 54.1307 17.8249 54.7304 18.358C55.3467 18.891 55.6965 19.6573 55.6965 20.4736L53.7642 20.5569C53.6809 20.0571 53.4976 19.7073 53.2311 19.4907C52.9646 19.2742 52.5481 19.1576 51.9984 19.1576C51.4487 19.1576 50.9989 19.2742 50.6824 19.5074C50.4825 19.6407 50.3659 19.8572 50.3825 20.1071C50.3825 20.3403 50.4825 20.5569 50.6657 20.6901C50.9156 20.89 51.4986 21.1066 52.4482 21.3232C53.1645 21.4731 53.8641 21.7063 54.5471 22.0228C54.9802 22.2394 55.3467 22.5892 55.6133 23.0057C56.113 23.9552 56.0797 25.1546 55.4966 26.0875Z" fill="white"/>
<path d="M40.6875 0H4.83865C2.50648 0 0.607422 1.8824 0.607422 4.23123V10.9779C0.607422 13.3101 2.50648 15.2091 4.83865 15.2091H40.6875C43.0197 15.2091 44.9188 13.3101 44.9188 10.9779V4.23123C44.9188 1.8824 43.0197 0 40.6875 0ZM16.4162 10.8446C16.2163 11.2777 15.8998 11.6442 15.5167 11.9108C15.1002 12.1939 14.6171 12.3605 14.1174 12.4105C13.7676 12.4438 12.918 12.4771 11.5853 12.4771H8.07038V2.09896H12.2183C12.8347 2.0823 13.451 2.11562 14.0507 2.19891C14.4339 2.26554 14.817 2.39881 15.1335 2.63203C15.4667 2.84859 15.7332 3.14844 15.9331 3.49826C16.1497 3.86475 16.2497 4.28121 16.2497 4.71433C16.2497 5.68051 15.6833 6.56341 14.7837 6.96321C15.3668 7.11314 15.8665 7.4463 16.2497 7.89608C16.5828 8.34586 16.7661 8.89558 16.7661 9.46197C16.7494 9.94506 16.6328 10.4115 16.4162 10.8446ZM25.9282 11.1278C25.595 11.6442 25.0953 12.0607 24.5289 12.2939C23.8126 12.5604 23.0463 12.6937 22.2633 12.677C20.9473 12.677 19.9478 12.3772 19.2482 11.7608C18.5485 11.1611 18.1321 10.2616 17.9988 9.09548L20.0311 8.89558C20.1477 9.57858 20.3976 10.0783 20.7807 10.4115C21.1472 10.728 21.6636 10.8946 22.2967 10.8946C22.963 10.8946 23.4794 10.7447 23.8292 10.4615C24.1457 10.2283 24.329 9.86177 24.3456 9.46197C24.3456 9.22875 24.279 9.01219 24.1291 8.82895C23.9125 8.61239 23.6626 8.46247 23.3794 8.37917C23.1296 8.29588 22.5798 8.14596 21.697 7.9294C20.5642 7.6462 19.7812 7.31304 19.3315 6.89658C18.7151 6.38017 18.3653 5.61388 18.3819 4.81428C18.3819 4.28121 18.5319 3.7648 18.8317 3.33168C19.1482 2.86524 19.598 2.49876 20.1311 2.2822C20.7807 2.01567 21.4804 1.89906 22.18 1.91572C23.4794 1.91572 24.4622 2.19891 25.1286 2.76529C25.7783 3.33168 26.1281 4.09797 26.1614 5.04749L24.0624 5.14744C23.9792 4.61438 23.7793 4.23123 23.4794 3.99802C23.1796 3.7648 22.7464 3.64819 22.1467 3.64819C21.547 3.64819 21.0639 3.78146 20.7141 4.01467C20.4975 4.1646 20.3809 4.39782 20.3809 4.66435C20.3809 4.91423 20.4975 5.14744 20.6974 5.29737C20.964 5.51393 21.597 5.74715 22.6298 5.99702C23.646 6.23024 24.4123 6.48012 24.8954 6.74665C25.3618 6.97987 25.7616 7.34635 26.0448 7.79613C26.5945 8.82895 26.5612 10.1116 25.9282 11.1278ZM35.3235 11.8275C34.6072 12.3772 33.6743 12.6604 32.5582 12.6604C31.1756 12.6604 30.0428 12.1939 29.1599 11.2444C28.277 10.2949 27.8272 9.01219 27.8272 7.37967C27.8272 5.6472 28.277 4.31453 29.1599 3.34834C30.0428 2.39881 31.2256 1.91572 32.6748 1.91572C33.9409 1.91572 34.9737 2.2822 35.7733 3.04849C36.2397 3.49826 36.6062 4.13128 36.8394 4.9642L34.7571 5.46395C34.5572 4.41447 33.6244 3.68151 32.5749 3.71482C31.8586 3.69816 31.1756 3.99802 30.7091 4.54774C30.2261 5.09747 29.9928 5.99702 29.9928 7.22974C29.9928 8.54576 30.2261 9.47863 30.6925 10.0284C31.1423 10.5781 31.8253 10.8779 32.5416 10.8613C33.0746 10.8613 33.591 10.678 33.9908 10.3115C34.3907 9.96172 34.6738 9.39534 34.8571 8.64571L36.8894 9.29539C36.5562 10.4282 36.0398 11.2777 35.3235 11.8275ZM14.3673 8.57907C14.2007 8.34586 13.9841 8.17927 13.7176 8.11264C13.4344 8.01269 12.818 7.96271 11.8518 7.96271H10.1693V10.7447H12.1017C12.5848 10.7613 13.0679 10.7447 13.5343 10.678C13.8342 10.6281 14.1007 10.4781 14.3006 10.2616C14.5005 10.0117 14.6171 9.69519 14.6005 9.37868C14.6005 9.07883 14.5172 8.81229 14.3673 8.57907ZM13.0679 6.18026C13.3844 6.16361 13.6843 6.03034 13.9175 5.81378C14.134 5.59722 14.234 5.29737 14.2173 4.99752C14.234 4.71433 14.134 4.43113 13.9508 4.21457C13.7509 3.99802 13.4677 3.86475 13.1679 3.84809C12.968 3.83143 12.3682 3.81477 11.3687 3.81477H10.1693V6.21358H11.5353C12.3516 6.21358 12.868 6.21358 13.0679 6.18026Z" fill="white"/>
</g>
<defs>
<clipPath id="clip0">
<rect width="57.8213" height="30.4016" fill="white" transform="translate(0.607422)"/>
</clipPath>
</defs>
</svg>
