<?xml version="1.0"?>
<svg xmlns="http://www.w3.org/2000/svg" width="102" height="28" viewBox="0 0 102 28" fill="none">
<g clip-path="url(#clip0)">
<path d="M42.1624 11.247C41.885 10.1657 41.1857 9.37453 39.8182 9.37453C37.8003 9.37453 36.9564 11.1542 36.9564 12.9602C36.9564 14.7662 37.8003 16.5468 39.8182 16.5468C41.2834 16.5468 42.0863 15.4528 42.2171 14.0815H43.8259C43.694 16.3358 42.099 17.8908 39.8212 17.8908C36.9993 17.8908 35.3115 15.6492 35.3115 12.9592C35.3115 10.2692 36.9935 8.02368 39.8153 8.02368C41.9378 8.03638 43.6119 9.21043 43.8102 11.2411L42.1624 11.247Z" fill="white"/>
<path d="M44.7998 14.2475C44.7998 12.1641 46.052 10.6619 48.2409 10.6619C50.4298 10.6619 51.682 12.1641 51.682 14.2475C51.682 16.3309 50.4298 17.8478 48.2409 17.8478C46.052 17.8478 44.7998 16.3446 44.7998 14.2475ZM50.1788 14.2475C50.1788 13.0754 49.5859 11.8486 48.2409 11.8486C46.8959 11.8486 46.303 13.0744 46.303 14.2475C46.303 15.4206 46.8959 16.6611 48.2409 16.6611C49.5859 16.6611 50.1788 15.4343 50.1788 14.2475Z" fill="white"/>
<path d="M52.9736 8.24805H54.4769V9.67215H52.9736V8.24805ZM52.9736 10.8462H54.4769V17.6629H52.9736V10.8462Z" fill="white"/>
<path d="M56.1123 10.8463H57.5364V11.8484L57.5628 11.8748C57.7787 11.5036 58.0887 11.1958 58.4615 10.9827C58.8343 10.7695 59.2568 10.6584 59.6862 10.6607C61.1631 10.6607 62.0988 11.4518 62.0988 12.9805V17.662H60.5956V13.377C60.5692 12.3094 60.1473 11.8484 59.2643 11.8484C58.2621 11.8484 57.6155 12.6386 57.6155 13.6407V17.663H56.1123V10.8463Z" fill="white"/>
<path d="M72.1061 17.663H71.0513L70.8012 16.5553C69.9221 17.5575 69.1134 17.8867 67.9686 17.8867C65.1488 17.8886 63.457 15.6421 63.457 12.955C63.457 10.268 65.1488 8.02344 67.9667 8.02344C70.0179 8.02344 71.7506 9.1174 72.0007 11.2409H70.392C70.2337 10.0014 69.1534 9.36842 67.9667 9.36842C65.9487 9.36842 65.1048 11.1481 65.1048 12.9541C65.1048 14.7601 65.9487 16.5407 67.9667 16.5407C69.6535 16.5671 70.5766 15.5522 70.6039 13.9562H68.0985V12.705H72.1032L72.1061 17.663Z" fill="white"/>
<path d="M74.8626 14.6431C74.8626 15.7117 75.4428 16.6611 76.695 16.6611C77.5653 16.6611 78.0927 16.2782 78.3555 15.5271H79.7805C79.4514 17.0166 78.1855 17.8478 76.695 17.8478C74.5598 17.8478 73.3594 16.3573 73.3594 14.2612C73.3594 12.3223 74.6291 10.6619 76.6559 10.6619C78.8048 10.6619 80.1234 12.5997 79.8733 14.6431H74.8626ZM78.3701 13.6546C78.3174 12.7052 77.6707 11.8486 76.6559 11.8486C75.6137 11.8486 74.9026 12.6388 74.8626 13.6546H78.3701Z" fill="white"/>
<path d="M85.623 13.1272C85.5038 12.296 84.8973 11.8486 84.0671 11.8486C83.2857 11.8486 82.1946 12.2569 82.1946 14.3266C82.1946 15.4606 82.6957 16.6611 84.0006 16.6611C84.8709 16.6611 85.4775 16.0809 85.623 15.1051H87.1262C86.8488 16.872 85.7588 17.8478 84.0006 17.8478C81.8645 17.8478 80.6914 16.3309 80.6914 14.3266C80.6914 12.2696 81.8127 10.6619 84.0534 10.6619C85.6357 10.6619 86.9836 11.453 87.1262 13.1272H85.623Z" fill="white"/>
<path d="M88.3955 8.24805H89.8987V13.6016L92.6151 10.8462H94.4611L91.8503 13.3506L94.7112 17.6629H92.8749L90.7915 14.3527L89.8948 15.223V17.6649H88.3955V8.24805Z" fill="white"/>
<path d="M95.1162 14.2475C95.1162 12.1641 96.3684 10.6619 98.5573 10.6619C100.746 10.6619 101.999 12.1641 101.999 14.2475C101.999 16.3309 100.746 17.8478 98.5573 17.8478C96.3684 17.8478 95.1162 16.3446 95.1162 14.2475ZM100.496 14.2475C100.496 13.0754 99.9023 11.8486 98.5573 11.8486C97.2123 11.8486 96.6194 13.0744 96.6194 14.2475C96.6194 15.4206 97.2123 16.6611 98.5573 16.6611C99.9023 16.6611 100.496 15.4343 100.496 14.2475Z" fill="white"/>
<path d="M26.9582 14.0794C26.9699 16.7453 26.1909 19.3548 24.7195 21.578C23.2482 23.8012 21.1506 25.5381 18.6921 26.5691C16.2336 27.6002 13.5246 27.879 10.9076 27.3704C8.29059 26.8618 5.88319 25.5885 3.98983 23.7117C2.09647 21.8349 0.802184 19.4387 0.270642 16.8263C-0.260901 14.2139 -0.00582356 11.5025 1.00362 9.03505C2.01306 6.56759 3.73152 4.45489 5.9417 2.9641C8.15187 1.47332 10.7545 0.671413 13.4204 0.659796C16.9951 0.644219 20.4297 2.04929 22.9685 4.56592C25.5073 7.08256 26.9424 10.5046 26.9582 14.0794Z" fill="#8DC63F"/>
<path d="M25.947 14.0845C25.9582 16.5501 25.238 18.9637 23.8775 21.0199C22.5169 23.0762 20.5772 24.6829 18.3035 25.6367C16.0299 26.5905 13.5245 26.8487 11.1041 26.3786C8.68367 25.9085 6.45703 24.7312 4.70574 22.9957C2.95444 21.2601 1.75714 19.0441 1.26525 16.6281C0.773361 14.212 1.00897 11.7043 1.94228 9.4222C2.8756 7.14004 4.4647 5.1859 6.50862 3.8069C8.55255 2.4279 10.9595 1.68596 13.4251 1.67493C16.7311 1.66039 19.9076 2.95957 22.2558 5.28674C24.604 7.61392 25.9318 10.7785 25.947 14.0845Z" fill="#F9E988"/>
<path d="M13.709 2.48245C14.5014 2.34179 15.3125 2.34179 16.105 2.48245C16.9051 2.60914 17.6785 2.86827 18.3935 3.2492C19.1045 3.6399 19.7189 4.17027 20.3304 4.66744C20.9418 5.1646 21.5503 5.67349 22.1295 6.23024C22.7208 6.77831 23.2368 7.40235 23.664 8.08606C24.1039 8.76435 24.4644 9.49093 24.7384 10.2515C25.259 11.7811 25.4397 13.4289 25.1799 15.0005H25.1028C24.842 13.4426 24.4884 11.9579 23.9307 10.5455C23.6689 9.83429 23.3609 9.14095 23.0086 8.46992C22.6411 7.79879 22.2361 7.14888 21.7955 6.52326C21.3474 5.89079 20.7983 5.3364 20.1702 4.88232C19.5372 4.43106 18.8096 4.13901 18.1053 3.86162C17.4011 3.58422 16.7027 3.29706 15.9682 3.08608C15.2337 2.8751 14.4875 2.71687 13.708 2.56352L13.709 2.48245Z" fill="white"/>
<path d="M19.803 9.68401C18.8985 9.42225 17.9608 9.05108 17.0114 8.67601C16.9567 8.43768 16.7457 8.14075 16.3189 7.77838C15.6987 7.24019 14.5334 7.25386 13.5264 7.49219C12.4148 7.23042 11.317 7.13763 10.263 7.39451C1.64323 9.76899 6.53088 15.5621 3.36621 21.3855C3.81649 22.3407 8.66996 27.9141 15.6928 26.4187C15.6928 26.4187 13.291 20.647 18.7109 17.877C23.1073 15.6217 26.2837 11.449 19.803 9.68401Z" fill="#8BC53F"/>
<path d="M20.8674 13.475C20.868 13.5783 20.8379 13.6795 20.7809 13.7658C20.724 13.852 20.6428 13.9194 20.5475 13.9595C20.4522 13.9996 20.3472 14.0106 20.2458 13.991C20.1443 13.9714 20.0509 13.9221 19.9774 13.8495C19.9039 13.7768 19.8536 13.684 19.8329 13.5827C19.8122 13.4814 19.8219 13.3763 19.8609 13.2806C19.8999 13.1849 19.9665 13.1029 20.0521 13.045C20.1377 12.9871 20.2385 12.9559 20.3419 12.9553C20.4804 12.9548 20.6135 13.0092 20.712 13.1066C20.8105 13.204 20.8663 13.3364 20.8674 13.475Z" fill="white"/>
<path d="M13.5254 7.4884C14.1534 7.53333 16.4244 8.2698 17.0104 8.67222C16.5221 7.25593 14.8782 7.06742 13.5254 7.4884Z" fill="#009345"/>
<path d="M14.124 11.0703C14.1242 11.5471 13.9829 12.0133 13.7182 12.4098C13.4534 12.8064 13.077 13.1155 12.6365 13.2981C12.1961 13.4807 11.7113 13.5286 11.2437 13.4357C10.776 13.3428 10.3464 13.1133 10.0091 12.7762C9.67191 12.4391 9.44222 12.0096 9.34913 11.5419C9.25603 11.0743 9.30371 10.5895 9.48614 10.149C9.66856 9.70845 9.97754 9.3319 10.374 9.06698C10.7704 8.80205 11.2365 8.66064 11.7134 8.66064C12.0299 8.66052 12.3433 8.72275 12.6358 8.84379C12.9282 8.96483 13.194 9.1423 13.4179 9.36607C13.6417 9.58984 13.8193 9.85552 13.9405 10.1479C14.0616 10.4403 14.124 10.7538 14.124 11.0703Z" fill="white"/>
<path d="M13.4089 11.0916C13.4089 11.427 13.3094 11.7548 13.1231 12.0337C12.9368 12.3125 12.6719 12.5299 12.3621 12.6582C12.0523 12.7865 11.7113 12.8201 11.3824 12.7547C11.0535 12.6893 10.7514 12.5278 10.5142 12.2906C10.2771 12.0535 10.1156 11.7514 10.0502 11.4224C9.98473 11.0935 10.0183 10.7526 10.1467 10.4427C10.275 10.1329 10.4923 9.86808 10.7712 9.68176C11.05 9.49544 11.3779 9.396 11.7132 9.396C12.1629 9.396 12.5942 9.57464 12.9122 9.89264C13.2302 10.2106 13.4089 10.6419 13.4089 11.0916Z" fill="#58595B"/>
<path d="M22.8202 14.5376C20.8667 15.9138 18.6455 16.9579 15.4945 16.9579C14.0196 16.9579 13.7208 15.3951 12.746 16.159C12.2429 16.5555 10.4692 17.4424 9.06166 17.375C7.65417 17.3076 5.37248 16.4823 4.73662 13.4778C4.48462 16.4823 4.35568 18.6956 3.22754 21.2322C5.47406 24.8296 10.8306 27.6045 15.6928 26.409C15.1703 22.7608 18.3584 19.1879 20.1546 17.3594C20.8383 16.6669 22.1374 15.5368 22.8202 14.5356V14.5376Z" fill="#8BC53F"/>
<path d="M22.743 14.6274C22.1364 15.1803 21.4146 15.5895 20.6801 15.9509C19.9366 16.304 19.1615 16.5862 18.3652 16.7939C17.5681 17 16.7369 17.1553 15.895 17.0791C15.053 17.0029 14.1925 16.7167 13.6348 16.0857L13.6611 16.0555C14.3449 16.4989 15.1341 16.6552 15.9194 16.6776C16.7154 16.7019 17.5116 16.6363 18.2929 16.4823C19.0821 16.3171 19.8542 16.0784 20.599 15.7693C21.3442 15.4616 22.0817 15.1051 22.7166 14.5972L22.743 14.6274Z" fill="#58595B"/>
</g>
<defs>
<clipPath id="clip0">
<rect width="102" height="26.9622" fill="white" transform="translate(0 0.659912)"/>
</clipPath>
</defs>
</svg>
