<?xml version="1.0"?>
<svg xmlns="http://www.w3.org/2000/svg" width="142" height="24" viewBox="0 0 142 24" fill="none">
<path fill-rule="evenodd" clip-rule="evenodd" d="M20.8513 14.1843C20.4268 14.446 19.9269 14.4784 19.547 14.2694C19.0644 14.0037 18.799 13.3813 18.799 12.5157V9.9261C18.799 8.67557 18.292 7.78573 17.4443 7.54546C16.0077 7.1373 14.9273 8.85157 14.5212 9.49537L11.9875 13.5017V8.60494C11.959 7.4783 11.5838 6.8044 10.8715 6.60119C10.4001 6.46688 9.69485 6.52072 9.00978 7.54315L3.33333 16.4323C2.57339 15.0254 2.17723 13.4587 2.17928 11.8685C2.17928 6.51377 6.57939 2.15775 11.9875 2.15775C17.3956 2.15775 21.7952 6.51377 21.7952 11.8685C21.7952 11.8777 21.7975 11.8859 21.7981 11.8945C21.7981 11.9038 21.7963 11.9119 21.7969 11.9212C21.848 12.9581 21.5037 13.7831 20.8513 14.1849V14.1843ZM23.9744 11.8691V11.8685V11.8419L23.9738 11.8152C23.9436 5.29392 18.5788 0 11.9869 0C5.37785 0 0 5.32403 0 11.8685C0 18.4124 5.37785 23.737 11.9875 23.737C15.0205 23.737 17.9151 22.6126 20.1371 20.5718C20.5788 20.1666 20.6049 19.484 20.1953 19.0475C20.0989 18.9438 19.9822 18.8599 19.8521 18.8008C19.7221 18.7416 19.5812 18.7083 19.4378 18.703C19.2944 18.6976 19.1513 18.7201 19.017 18.7694C18.8826 18.8186 18.7597 18.8934 18.6554 18.9896C16.8543 20.6529 14.468 21.5797 11.9875 21.5792C9.0917 21.5792 6.48619 20.3293 4.68922 18.3469L9.80823 10.3308V14.0262C9.80823 15.8013 10.5141 16.375 11.1059 16.5429C11.6984 16.7108 12.6037 16.5962 13.5541 15.0909L16.3698 10.6394C16.46 10.4958 16.5432 10.3719 16.6191 10.2648V12.5157C16.6191 14.175 17.3007 15.502 18.4885 16.1556C19.5595 16.745 20.9059 16.6917 22.0029 16.0167C23.3327 15.1974 24.0492 13.6881 23.9744 11.8691ZM40.6636 7.81409C40.9515 7.98488 41.2009 8.36468 41.2009 8.70683C41.2009 9.25742 40.7212 9.71305 40.184 9.71305C40.0498 9.71305 39.9156 9.67542 39.8005 9.63721C39.167 9.18157 38.3615 8.87763 37.5173 8.87763C35.5226 8.87763 34.1412 10.4726 34.1412 12.4474C34.1412 14.4228 35.5226 15.9987 37.5173 15.9987C38.5146 15.9987 39.3974 15.5998 40.0688 14.9925C40.2423 14.8709 40.45 14.8046 40.6636 14.8026C41.2009 14.8026 41.623 15.22 41.623 15.7521C41.623 16.0937 41.4116 16.3976 41.1433 16.5684C40.184 17.3662 38.8797 17.8977 37.5369 17.8977C34.4677 17.8977 31.9732 15.429 31.9732 12.3907C31.9732 9.35236 34.4671 6.88372 37.5369 6.88372C38.688 6.88372 39.7809 7.2253 40.6636 7.81409ZM46.276 10.1119C48.3668 10.1119 50.1317 11.8401 50.1317 13.9666C50.1317 16.0937 48.3668 17.8977 46.276 17.8977C44.089 17.8977 42.2665 16.0937 42.2665 13.9666C42.2665 11.8401 44.089 10.1119 46.276 10.1119ZM46.2564 15.9987C47.1777 15.9987 47.9637 15.1442 47.9637 13.9857C47.9637 12.8278 47.1777 12.1059 46.2564 12.1059C45.259 12.1059 44.4339 12.8087 44.4339 13.9857C44.4339 15.1442 45.259 15.9987 46.2564 15.9987ZM51.4466 16.7201V11.2895C51.4466 10.7007 51.9263 10.2069 52.5211 10.2069C53.116 10.2069 53.6146 10.7007 53.6146 11.2895V16.7201C53.6146 17.3089 53.116 17.8027 52.5211 17.8027C51.9263 17.8027 51.4466 17.3089 51.4466 16.7201ZM51.2745 8.15625C51.2745 7.45341 51.8301 6.88372 52.5211 6.88372C53.2305 6.88372 53.8064 7.45341 53.8064 8.15625C53.8064 8.83941 53.2305 9.39058 52.5211 9.39058C51.8301 9.39058 51.2745 8.83941 51.2745 8.15625ZM57.769 13.7767V16.7201C57.769 17.3089 57.2703 17.8027 56.6749 17.8027C56.0806 17.8027 55.6004 17.3089 55.6004 16.7201V11.0423C55.6004 10.5867 55.9845 10.2069 56.4451 10.2069C56.9052 10.2069 57.2703 10.5867 57.2703 11.0423C58.1525 10.2451 58.9195 10.1119 59.6485 10.1119C61.8165 10.1119 62.7758 11.707 62.7758 13.511V16.7201C62.7758 17.3089 62.2771 17.8027 61.6823 17.8027C61.0875 17.8027 60.6078 17.3089 60.6078 16.7201V13.7767C60.6078 12.8463 60.4926 12.0676 59.1308 12.0676C58.1715 12.0676 57.7684 12.8463 57.7684 13.7767H57.769ZM69.8265 14.8976C69.5772 14.8976 69.405 14.7835 69.2703 14.6312L66.7378 11.9542V16.7201C66.7378 17.3089 66.2391 17.8027 65.6443 17.8027C65.0495 17.8027 64.5698 17.3089 64.5698 16.7201V7.2832C64.6008 7.20369 64.6562 7.13546 64.7285 7.0878C64.8007 7.04014 64.8863 7.01537 64.9735 7.01688C65.1646 7.01688 65.3178 7.16914 65.4335 7.2832L69.462 11.7075C69.5772 11.8407 69.7304 11.9165 69.8075 11.9165C69.8841 11.9165 70.0373 11.8407 70.1524 11.7081L74.1815 7.2832C74.2967 7.16914 74.4499 7.01688 74.6416 7.01688C74.8334 7.01688 74.9871 7.13093 75.0447 7.2832V16.7201C75.0447 17.3089 74.565 17.8027 73.9702 17.8027C73.3754 17.8027 72.8767 17.3089 72.8767 16.7201V11.9542L70.3448 14.6312C70.21 14.7835 70.0373 14.8976 69.8265 14.8976ZM80.2539 15.9987C81.2323 15.9987 82.0569 15.1442 82.0569 13.9857C82.0569 12.8278 81.2133 12.0676 80.2539 12.0676C79.2946 12.0676 78.527 12.8463 78.527 13.9857C78.527 15.106 79.2946 15.9987 80.2539 15.9987ZM82.5561 16.9673L82.5169 16.7201C82.0954 17.5364 80.752 17.8977 79.8888 17.8977C77.855 17.8977 76.359 16.0937 76.359 13.9666C76.359 11.8401 77.8936 10.1119 80.004 10.1119C80.3685 10.1119 81.5772 10.2069 82.5169 11.2895L82.5555 11.0423C82.5555 10.5867 82.92 10.2069 83.3807 10.2069C83.8408 10.2069 84.2243 10.5867 84.2243 11.0423V16.9673C84.2243 17.4229 83.8408 17.8027 83.3801 17.8027C82.92 17.8027 82.5549 17.4229 82.5549 16.9673H82.5561ZM90.2397 12.0676H90.0099C88.6475 12.1441 88.3792 12.9036 88.3792 13.7767V16.7201C88.3792 17.3089 87.8805 17.8027 87.2857 17.8027C86.6909 17.8027 86.2112 17.3089 86.2112 16.7201V11.0423C86.2112 10.5867 86.5947 10.2069 87.0554 10.2069C87.516 10.2069 87.8805 10.5867 87.8805 11.0423C88.6861 10.3018 89.3385 10.1502 90.0099 10.1119H90.2207C90.7389 10.1119 91.218 10.5485 91.218 11.0996C91.218 11.612 90.7579 12.0676 90.2397 12.0676ZM98.5953 16.2268C98.6914 16.3785 98.749 16.5493 98.749 16.7392C98.749 17.2898 98.2308 17.8027 97.6745 17.8027C97.291 17.8027 96.9645 17.5179 96.7152 17.2139L94.2219 14.3846V16.7201C94.2219 17.3089 93.7226 17.8027 93.1278 17.8027C92.5329 17.8027 92.0533 17.3089 92.0533 16.7201V8.09952C92.0533 7.51014 92.5329 7.01688 93.1278 7.01688C93.7226 7.01688 94.2213 7.51014 94.2213 8.09952V13.4733L96.7152 10.7766C96.9645 10.4917 97.2714 10.2069 97.6555 10.2069C98.1928 10.2069 98.6914 10.7007 98.6914 11.2513C98.6914 11.4221 98.6528 11.5929 98.5567 11.7452L96.581 13.8525L98.5953 16.2262V16.2268ZM102.846 12.1059C102.251 12.1059 101.292 12.4098 101.292 13.302H104.418C104.418 12.3907 103.421 12.1059 102.845 12.1059H102.846ZM105.685 14.6503H101.292C101.292 15.9229 102.538 16.1128 103.095 16.1128C103.498 16.1128 104.073 16.0369 104.515 15.8465C104.649 15.7521 104.879 15.6757 105.071 15.6757C105.55 15.6757 105.953 16.0751 105.953 16.5499C105.953 16.8724 105.742 17.1572 105.474 17.3089C104.802 17.7836 103.939 17.8977 103.114 17.8977C100.927 17.8977 99.1046 16.7398 99.1046 14.0615C99.1046 11.9542 100.217 10.1119 102.807 10.1119C104.898 10.1119 106.49 11.4412 106.529 13.8149C106.529 14.2705 106.145 14.6503 105.685 14.6503ZM111.719 17.8977H111.124C109.474 17.8977 108.515 17.1948 108.515 14.6694V12.0676H107.959C107.441 12.0676 106.981 11.612 106.981 11.0996C106.981 10.5485 107.441 10.1119 107.959 10.1119H108.515V8.09894C108.515 7.51014 108.995 7.0163 109.59 7.0163C110.184 7.0163 110.683 7.51014 110.683 8.09894V10.1119H111.584C112.103 10.1119 112.563 10.5485 112.563 11.0996C112.563 11.612 112.103 12.0676 111.584 12.0676H110.683V14.2514C110.683 15.6948 110.76 15.9987 111.412 15.9987H111.719C112.237 15.9987 112.678 16.4167 112.678 16.9482C112.678 17.4611 112.237 17.8977 111.719 17.8977ZM122.223 7.81409C122.51 7.98488 122.76 8.36468 122.76 8.70683C122.76 9.25742 122.281 9.71305 121.743 9.71305C121.609 9.71305 121.474 9.67542 121.36 9.63721C120.726 9.18157 119.921 8.87763 119.077 8.87763C117.082 8.87763 115.7 10.4726 115.7 12.4474C115.7 14.4228 117.081 15.9987 119.077 15.9987C120.074 15.9987 120.957 15.5998 121.628 14.9925C121.802 14.8709 122.009 14.8046 122.223 14.8026C122.76 14.8026 123.182 15.22 123.182 15.7521C123.182 16.0937 122.971 16.3976 122.703 16.5684C121.743 17.3662 120.438 17.8977 119.096 17.8977C116.027 17.8977 113.533 15.429 113.533 12.3907C113.533 9.35236 116.026 6.88372 119.096 6.88372C120.247 6.88372 121.34 7.2253 122.223 7.81409ZM127.72 15.9987C128.699 15.9987 129.523 15.1442 129.523 13.9857C129.523 12.8278 128.679 12.0676 127.72 12.0676C126.761 12.0676 125.993 12.8463 125.993 13.9857C125.993 15.106 126.761 15.9987 127.72 15.9987H127.72ZM130.022 16.9673L129.984 16.7201C129.562 17.5364 128.219 17.8977 127.355 17.8977C125.322 17.8977 123.825 16.0937 123.825 13.9666C123.825 11.8401 125.36 10.1119 127.47 10.1119C127.835 10.1119 129.043 10.2069 129.984 11.2895L130.022 11.0423C130.022 10.5867 130.386 10.2069 130.847 10.2069C131.307 10.2069 131.691 10.5867 131.691 11.0423V16.9673C131.691 17.4229 131.307 17.8027 130.847 17.8027C130.386 17.8027 130.022 17.4229 130.022 16.9673ZM137.648 15.9987C138.608 15.9987 139.375 15.106 139.375 13.9857C139.375 12.8463 138.608 12.0676 137.648 12.0676C136.689 12.0676 135.845 12.8272 135.845 13.9857C135.845 15.1442 136.67 15.9987 137.648 15.9987ZM135.845 17.2712V19.9674C135.845 20.5562 135.346 21.0501 134.751 21.0501C134.157 21.0501 133.677 20.5562 133.677 19.9674V11.0423C133.677 10.5867 134.061 10.2069 134.522 10.2069C134.982 10.2069 135.347 10.5867 135.347 11.1182C136.152 10.3018 137.15 10.1119 137.898 10.1119C140.008 10.1119 141.543 11.8401 141.543 13.9666C141.543 16.0937 140.047 17.8977 138.013 17.8977C137.38 17.8977 136.44 17.7078 135.845 17.2712Z" fill="white"/>
</svg>
